<?xml version="1.0" encoding="UTF-8"?>
<svg width="63px" height="87px" viewBox="0 0 63 87" version="1.1" xmlns="http://www.w3.org/2000/svg" xmlns:xlink="http://www.w3.org/1999/xlink">
    <!-- Generator: Sketch 50.2 (55047) - http://www.bohemiancoding.com/sketch -->
    <title>home</title>
    <desc>Created with Sketch.</desc>
    <defs></defs>
    <g id="thalida.com---Home" stroke="none" stroke-width="1" fill="none" fill-rule="evenodd">
        <g id="Home:-Version-6" transform="translate(-821.000000, -545.000000)" stroke="#000000">
            <g id="window" transform="translate(528.000000, 248.000000)">
                <g id="google-home" transform="translate(294.000000, 283.000000)">
                    <g id="home" transform="translate(30.500000, 57.500000) scale(-1, 1) translate(-30.500000, -57.500000) translate(0.000000, 15.000000)">
                        <path d="M5.44863973,19.3222855 C16.6805191,15.5551835 25.0171639,12.6251656 30.4559436,10.5333272 C35.789642,8.48190473 44.1357809,5.00605666 55.4914561,0.106831546 C56.2520998,-0.221255118 57.1347099,0.129335297 57.4628636,0.88994683 C57.532074,1.05036632 57.5727257,1.22164406 57.5829852,1.39605519 L61.0044708,59.5613105 C61.7990371,73.0689374 51.4930652,84.6631559 37.9854382,85.4577221 C37.5063925,85.4859013 37.0266224,85.5 36.5467487,85.5 L24.7233858,85.5 C11.1924094,85.5 0.22338579,74.5309764 0.22338579,61 C0.22338579,60.1236792 0.270402384,59.2479895 0.36423287,58.3767065 L4.43424893,20.5838093 C4.49698309,20.0012778 4.8931507,19.5085931 5.44863973,19.3222855 Z" id="Rectangle-9" fill="#FFFFFF"></path>
                        <path d="M61.457936,59.9800517 C62.0212379,73.4992977 51.51837,84.9154584 37.999124,85.4787603 C37.6593255,85.4929186 37.3192691,85.5 36.9791757,85.5 L24.7233858,85.5 C11.1924094,85.5 0.22338579,74.5309764 0.22338579,61 C0.22338579,60.2611862 0.22338579,60.2611862 0.22338579,60.0008639 L0.22338579,59.4638529 L0.759030452,59.5021361 C10.066432,60.167347 20.0972986,60.5 30.8514768,60.5 C41.6056413,60.5 51.6294252,60.1673488 60.922671,59.5021429 L61.4364907,59.465364 L61.457936,59.9800517 Z" id="pink" fill="#FFDADA"></path>
                    </g>
                </g>
            </g>
        </g>
    </g>
</svg>