<?xml version="1.0" encoding="UTF-8"?>
<svg width="234px" height="144px" viewBox="0 0 234 144" version="1.1" xmlns="http://www.w3.org/2000/svg" xmlns:xlink="http://www.w3.org/1999/xlink">
    <!-- Generator: Sketch 50.2 (55047) - http://www.bohemiancoding.com/sketch -->
    <title>skyline</title>
    <desc>Created with Sketch.</desc>
    <defs></defs>
    <g id="thalida.com---Home" stroke="none" stroke-width="1" fill="none" fill-rule="evenodd">
        <g id="Home:-Version-6" transform="translate(-603.000000, -477.000000)" fill="#000000">
            <g id="window" transform="translate(528.000000, 248.000000)">
                <g id="outside">
                    <g transform="translate(75.000000, 12.000000)">
                        <path d="M65,291.914475 C75.8403777,290.203228 85.8403777,288.713502 95,287.445299 L95,246 L117,246 L117,264 L139,264 L139,282.553131 C139.677827,282.506552 140.344494,282.462914 141,282.422218 L141,249 L147,249 L147,236 L153,236 L153,228 L167,228 L167,282.732668 C167.664707,282.80077 168.331374,282.87362 169,282.951217 L169,217 L203,217 L203,290.448356 C213.28026,293.695945 223.946927,297.879827 235,303 L235,361 L0,361 L0,303 C0.333825337,302.939739 0.66715867,302.879608 1,302.819607 L1,284 L31,284 L31,271 L65,271 L65,291.914475 Z" id="skyline"></path>
                    </g>
                </g>
            </g>
        </g>
    </g>
</svg>