<?xml version="1.0" encoding="UTF-8"?>
<svg width="17px" height="14px" viewBox="0 0 17 14" version="1.1" xmlns="http://www.w3.org/2000/svg" xmlns:xlink="http://www.w3.org/1999/xlink">
    <!-- Generator: Sketch 48.2 (47327) - http://www.bohemiancoding.com/sketch -->
    <title>icon/code</title>
    <desc>Created with Sketch.</desc>
    <defs></defs>
    <g id="Symbols" stroke="none" stroke-width="1" fill="none" fill-rule="evenodd">
        <g id="icon/code" fill="#000000" fill-rule="nonzero" stroke="#000000" stroke-width="0.5">
            <path d="M3.813,3.096 C3.6,2.934 3.254,2.934 3.042,3.096 L0.16,6.29 C-0.053,6.452 -0.053,6.715 0.16,6.877 C0.228,6.929 3.034,9.877 3.034,9.877 C3.249,10.039 3.597,10.039 3.811,9.877 C4.026,9.715 4.026,9.453 3.811,9.289 L1.273,6.498 L3.813,3.683 C4.026,3.521 4.026,3.258 3.813,3.096 Z M15.84,6.096 C15.762,6.038 12.936,3.096 12.936,3.096 C12.721,2.934 12.373,2.934 12.159,3.096 C11.945,3.258 11.944,3.521 12.159,3.683 L14.708,6.486 L12.159,9.289 C11.944,9.453 11.944,9.715 12.159,9.877 C12.374,10.039 12.722,10.039 12.936,9.877 L15.84,6.683 C16.055,6.521 16.055,6.258 15.84,6.096 Z M11.742,0.068 C11.502,-0.071 11.193,0.011 11.053,0.252 L4.046,13.254 C3.907,13.492 3.989,13.795 4.229,13.934 C4.469,14.071 4.776,13.989 4.914,13.75 L11.928,0.753 C12.066,0.513 11.984,0.207 11.742,0.068 Z" id="Shape"></path>
        </g>
    </g>
</svg>