<?xml version="1.0" encoding="UTF-8"?>
<svg width="15px" height="16px" viewBox="0 0 15 16" version="1.1" xmlns="http://www.w3.org/2000/svg" xmlns:xlink="http://www.w3.org/1999/xlink">
    <!-- Generator: Sketch 48.2 (47327) - http://www.bohemiancoding.com/sketch -->
    <title>icon/dribbble</title>
    <desc>Created with Sketch.</desc>
    <defs></defs>
    <g id="Symbols" stroke="none" stroke-width="1" fill="none" fill-rule="evenodd">
        <g id="icon/dribbble" fill="#000000" fill-rule="nonzero">
            <path d="M7.5,0.999 C3.358,0.999 0,4.357 0,8.499 C0,12.642 3.358,15.999 7.5,15.999 C11.643,15.999 15,12.642 15,8.499 C15,4.357 11.643,0.999 7.5,0.999 Z M13.488,8.378 C11.896,7.972 10.504,7.899 9.297,8.053 C9.094,7.583 8.873,7.103 8.621,6.611 C9.693,6.115 10.85,5.467 12.084,4.632 C12.941,5.647 13.459,6.952 13.488,8.378 Z M7.5,2.499 C8.895,2.499 10.176,2.979 11.196,3.778 C10.727,4.183 9.704,4.967 8.133,5.709 C7.558,4.694 6.881,3.665 6.072,2.677 C6.53,2.565 7.006,2.499 7.5,2.499 Z M4.942,3.078 C5.398,3.697 6.152,4.79 6.949,6.203 C5.217,6.824 3.209,7.087 1.686,7.073 C2.12,5.304 3.328,3.841 4.942,3.078 Z M1.5,8.499 C1.5,8.383 1.519,8.27 1.525,8.155 C2.666,8.246 4.718,8.164 7.442,7.111 C7.639,7.489 7.833,7.898 8.025,8.31 C5.135,9.128 3.527,11.22 2.868,12.314 C2.014,11.276 1.5,9.948 1.5,8.499 Z M7.5,14.499 C6.065,14.499 4.748,13.994 3.716,13.153 C5.038,10.912 6.789,9.818 8.479,9.349 C9.077,10.778 9.604,12.34 9.905,13.994 C9.168,14.317 8.355,14.499 7.5,14.499 Z M10.979,13.381 C10.903,12.95 10.565,11.26 9.733,9.106 C11.315,8.914 12.702,9.155 13.436,9.338 C13.201,11.003 12.287,12.447 10.979,13.381 Z" id="Shape"></path>
        </g>
    </g>
</svg>