<?xml version="1.0" encoding="UTF-8"?>
<svg width="15px" height="15px" viewBox="0 0 15 15" version="1.1" xmlns="http://www.w3.org/2000/svg" xmlns:xlink="http://www.w3.org/1999/xlink">
    <!-- Generator: Sketch 48.2 (47327) - http://www.bohemiancoding.com/sketch -->
    <title>icon/link</title>
    <desc>Created with Sketch.</desc>
    <defs></defs>
    <g id="Symbols" stroke="none" stroke-width="1" fill="none" fill-rule="evenodd">
        <g id="icon/link" fill="#000000" fill-rule="nonzero" stroke="#000000" stroke-width="0.5">
            <path d="M6.74213498,12.4334636 L5.78845078,13.3871477 L5.4708477,13.7047508 C4.94500898,14.2305895 4.08931803,14.2305895 3.56347931,13.7047508 L2.29219203,12.4334636 C1.76635332,11.9076248 1.76635332,11.0528088 2.29219203,10.5260952 L6.42453189,6.39463025 C6.95037061,5.86791659 7.80518662,5.86791659 8.33190028,6.39463025 L8.96710645,7.03071136 L9.28470953,7.34831444 C9.3722035,7.43668334 9.48769553,7.47955538 9.60231262,7.47955538 C9.71692971,7.47955538 9.83329668,7.4358084 9.9199157,7.34831444 C10.0957786,7.17332652 10.0957786,6.88897114 9.9199157,6.71223333 L9.60231262,6.39463025 L8.96623151,5.75854914 C8.09041694,4.88185963 6.66426535,4.88185963 5.78845078,5.75854914 L1.65611093,9.890889 C0.780296358,10.7675785 0.780296358,12.1937301 1.65611093,13.0695447 L2.9273982,14.3408319 C3.80321277,15.2175214 5.22936436,15.2166465 6.10605387,14.3408319 L6.42453189,14.0232289 L7.37734115,13.0695447 C7.55320401,12.8936818 7.55320401,12.6093264 7.37734115,12.4334636 C7.20235322,12.2584756 6.91799784,12.2584756 6.74213498,12.4334636 Z M14.3191121,2.847625 L13.1501928,1.67783072 C12.2612541,0.788017117 10.7782315,0.769643385 9.91204125,1.63495868 L9.60231262,1.9446873 L8.64862842,2.89924644 C8.4736405,3.07423436 8.4736405,3.35858974 8.64862842,3.53445261 C8.73787227,3.62282151 8.85161442,3.66656849 8.96710645,3.66656849 C9.08172354,3.66656849 9.19809051,3.62194657 9.28470953,3.53445261 L10.2383937,2.58076841 L10.5481224,2.27103978 C11.060837,1.7592001 11.9803985,1.77844877 12.5149866,2.31391183 L13.6856559,3.48370611 C14.220244,4.01916916 14.2394926,4.93785577 13.726778,5.44969545 L10.8657254,8.31074803 L9.74930248,9.42629606 C9.20421509,9.97138344 8.14291332,10.021255 7.64507267,9.52253941 L7.10960962,8.9879513 C7.09298577,8.97132745 7.08161155,8.94857902 7.06673758,8.93020529 L7.05973806,8.9372048 L6.74213498,8.62047666 C6.56627211,8.44461379 6.28191673,8.44461379 6.10605387,8.62047666 C5.930191,8.79546458 5.930191,9.07981996 6.10605387,9.25655777 L6.47352851,9.62403241 L7.00899156,10.1586205 L7.05886312,10.210242 C7.08423637,10.2338653 7.11485926,10.2478644 7.14373227,10.2662381 C7.97579985,10.9583153 9.34158061,10.9233178 10.2217699,10.194493 L10.2375188,10.210242 C10.2681417,10.1778692 10.2952648,10.1437465 10.3250128,10.1104988 C10.3433865,10.0930001 10.3661349,10.0807509 10.3845086,10.0623772 L14.3611092,6.08577656 C15.2281744,5.21871139 15.2089257,3.7374386 14.3191121,2.847625 Z" id="Shape"></path>
        </g>
    </g>
</svg>