<?xml version="1.0" encoding="UTF-8"?>
<svg width="139px" height="110px" viewBox="0 0 139 110" version="1.1" xmlns="http://www.w3.org/2000/svg" xmlns:xlink="http://www.w3.org/1999/xlink">
    <!-- Generator: Sketch 50.2 (55047) - http://www.bohemiancoding.com/sketch -->
    <title>leaves</title>
    <desc>Simple illustrated branch with green leaves</desc>
    <defs></defs>
    <g id="thalida.com---Home" stroke="none" stroke-width="1" fill="none" fill-rule="evenodd">
        <g id="Home:-Version-6" transform="translate(-492.000000, -1150.000000)" stroke="#000000">
            <g id="about" transform="translate(180.000000, 1027.000000)">
                <g id="leaves-title" transform="translate(234.000000, 0.000000)">
                    <g id="&amp;-leaves" transform="translate(134.762842, 160.471546) rotate(-309.000000) translate(-134.762842, -160.471546) translate(70.262842, 80.471546)">
                        <g id="stem-2" transform="translate(82.198510, 53.018989) rotate(36.000000) translate(-82.198510, -53.018989) translate(61.698510, 2.518989)">
                            <path d="M13.6538462,100.37013 L29.3461538,4.62987013" id="Line-4" stroke-linecap="square"></path>
                            <path d="M5.36366134,97 C7.05636022,97 9.93513977,95.961063 14,93.883189 C13.3482294,92.8708668 11.9351178,92.0572843 9.76066516,91.4424412 C6.49898623,90.5201766 1.17871784,90.9507915 1.00049281,93.5812439 C0.965244667,96.5214238 2.82461304,97 5.36366134,97 Z" id="Oval-2" fill="#79C88D" transform="translate(7.500000, 94.000000) scale(-1, 1) rotate(-22.000000) translate(-7.500000, -94.000000) "></path>
                            <path d="M8.36366134,83 C10.0563602,83 12.9351398,81.961063 17,79.883189 C16.3482294,78.8708668 14.9351178,78.0572843 12.7606652,77.4424412 C9.49898623,76.5201766 4.17871784,76.9507915 4.00049281,79.5812439 C3.96524467,82.5214238 5.82461304,83 8.36366134,83 Z" id="Oval-2" fill="#79C88D" transform="translate(10.500000, 80.000000) scale(-1, 1) rotate(-46.000000) translate(-10.500000, -80.000000) "></path>
                            <path d="M20.3636613,77 C22.0563602,77 24.9351398,75.961063 29,73.883189 C28.3482294,72.8708668 26.9351178,72.0572843 24.7606652,71.4424412 C21.4989862,70.5201766 16.1787178,70.9507915 16.0004928,73.5812439 C15.9652447,76.5214238 17.824613,77 20.3636613,77 Z" id="Oval-2" fill="#79C88D" transform="translate(22.500000, 74.000000) rotate(-46.000000) translate(-22.500000, -74.000000) "></path>
                            <path d="M22.3636613,56 C24.0563602,56 26.9351398,54.961063 31,52.883189 C30.3482294,51.8708668 28.9351178,51.0572843 26.7606652,50.4424412 C23.4989862,49.5201766 18.1787178,49.9507915 18.0004928,52.5812439 C17.9652447,55.5214238 19.824613,56 22.3636613,56 Z" id="Oval-2" fill="#79C88D" transform="translate(24.500000, 53.000000) rotate(-46.000000) translate(-24.500000, -53.000000) "></path>
                            <path d="M31.3636613,9 C33.0563602,9 35.9351398,7.96106298 40,5.88318895 C39.3482294,4.87086684 37.9351178,4.05728426 35.7606652,3.44244121 C32.4989862,2.52017664 27.1787178,2.95079147 27.0004928,5.58124389 C26.9652447,8.52142382 28.824613,9 31.3636613,9 Z" id="Oval-2" fill="#79C88D" transform="translate(33.500000, 6.000000) rotate(-27.000000) translate(-33.500000, -6.000000) "></path>
                            <path d="M9.36366134,72 C11.0563602,72 13.9351398,70.961063 18,68.883189 C17.3482294,67.8708668 15.9351178,67.0572843 13.7606652,66.4424412 C10.4989862,65.5201766 5.17871784,65.9507915 5.00049281,68.5812439 C4.96524467,71.5214238 6.82461304,72 9.36366134,72 Z" id="Oval-2" fill="#79C88D" transform="translate(11.500000, 69.000000) scale(-1, 1) rotate(-21.000000) translate(-11.500000, -69.000000) "></path>
                            <path d="M14.3636613,46 C16.0563602,46 18.9351398,44.961063 23,42.883189 C22.3482294,41.8708668 20.9351178,41.0572843 18.7606652,40.4424412 C15.4989862,39.5201766 10.1787178,39.9507915 10.0004928,42.5812439 C9.96524467,45.5214238 11.824613,46 14.3636613,46 Z" id="Oval-2" fill="#79C88D" transform="translate(16.500000, 43.000000) scale(-1, 1) rotate(-35.000000) translate(-16.500000, -43.000000) "></path>
                            <path d="M17.3636613,21 C19.0563602,21 21.9351398,19.961063 26,17.883189 C25.3482294,16.8708668 23.9351178,16.0572843 21.7606652,15.4424412 C18.4989862,14.5201766 13.1787178,14.9507915 13.0004928,17.5812439 C12.9652447,20.5214238 14.824613,21 17.3636613,21 Z" id="Oval-2" fill="#79C88D" transform="translate(19.500000, 18.000000) scale(-1, 1) rotate(-38.000000) translate(-19.500000, -18.000000) "></path>
                            <path d="M19.3636613,14 C21.0563602,14 23.9351398,12.961063 28,10.883189 C27.3482294,9.87086684 25.9351178,9.05728426 23.7606652,8.44244121 C20.4989862,7.52017664 15.1787178,7.95079147 15.0004928,10.5812439 C14.9652447,13.5214238 16.824613,14 19.3636613,14 Z" id="Oval-2" fill="#79C88D" transform="translate(21.500000, 11.000000) scale(-1, 1) rotate(-38.000000) translate(-21.500000, -11.000000) "></path>
                        </g>
                        <g id="stem-3" transform="translate(65.607261, 120.660030) rotate(112.000000) translate(-65.607261, -120.660030) translate(43.607261, 70.160030)">
                            <path d="M18.9803922,1.6766 L22.4313725,100.3334" id="Line-3" stroke-linecap="square"></path>
                            <path d="M31.7395548,84.8382092 C35.0995688,84.9031668 38.3236388,83.200949 41.4117647,79.7315559 C40.0191024,78.722684 37.8164903,77.8637549 34.8039286,77.1547686 C30.2850861,76.0912891 24.2362226,77.2911901 23.4017989,79.3833778 C22.5673751,81.4755655 26.6995338,84.7407729 31.7395548,84.8382092 Z" id="Oval-2" fill="#79C88D" transform="translate(32.352941, 80.800000) rotate(-27.000000) translate(-32.352941, -80.800000) "></path>
                            <path d="M30.4454371,65.6482092 C33.8054512,65.7131668 37.0295211,64.010949 40.1176471,60.5415559 C38.7249847,59.532684 36.5223727,58.6737549 33.509811,57.9647686 C28.9909684,56.9012891 22.942105,58.1011901 22.1076812,60.1933778 C21.2732575,62.2855655 25.4054161,65.5507729 30.4454371,65.6482092 Z" id="Oval-2" fill="#79C88D" transform="translate(31.058824, 61.610000) rotate(-27.000000) translate(-31.058824, -61.610000) "></path>
                            <path d="M30.4454371,46.4582092 C33.8054512,46.5231668 37.0295211,44.820949 40.1176471,41.3515559 C38.7249847,40.342684 36.5223727,39.4837549 33.509811,38.7747686 C28.9909684,37.7112891 22.942105,38.9111901 22.1076812,41.0033778 C21.2732575,43.0955655 25.4054161,46.3607729 30.4454371,46.4582092 Z" id="Oval-2" fill="#79C88D" transform="translate(31.058824, 42.420000) rotate(-27.000000) translate(-31.058824, -42.420000) "></path>
                            <path d="M27.8572018,24.2382092 C31.2172159,24.3031668 34.4412858,22.600949 37.5294118,19.1315559 C36.1367494,18.122684 33.9341374,17.2637549 30.9215757,16.5547686 C26.4027331,15.4912891 20.3538697,16.6911901 19.5194459,18.7833778 C18.6850222,20.8755655 22.8171808,24.1407729 27.8572018,24.2382092 Z" id="Oval-2" fill="#79C88D" transform="translate(28.470588, 20.200000) rotate(-27.000000) translate(-28.470588, -20.200000) "></path>
                            <path d="M12.3277901,79.7882092 C15.6878041,79.8531668 18.9118741,78.150949 22,74.6815559 C20.6073376,73.672684 18.4047256,72.8137549 15.3921639,72.1047686 C10.8733214,71.0412891 4.82445792,72.2411901 3.99003418,74.3333778 C3.15561044,76.4255655 7.28776905,79.6907729 12.3277901,79.7882092 Z" id="Oval-2" fill="#79C88D" transform="translate(12.941176, 75.750000) scale(-1, 1) rotate(-27.000000) translate(-12.941176, -75.750000) "></path>
                            <path d="M12.3277901,62.6182092 C15.6878041,62.6831668 18.9118741,60.980949 22,57.5115559 C20.6073376,56.502684 18.4047256,55.6437549 15.3921639,54.9347686 C10.8733214,53.8712891 4.82445792,55.0711901 3.99003418,57.1633778 C3.15561044,59.2555655 7.28776905,62.5207729 12.3277901,62.6182092 Z" id="Oval-2" fill="#79C88D" transform="translate(12.941176, 58.580000) scale(-1, 1) rotate(-27.000000) translate(-12.941176, -58.580000) "></path>
                            <path d="M11.0336724,40.3982092 C14.3936865,40.4631668 17.6177564,38.760949 20.7058824,35.2915559 C19.31322,34.282684 17.110608,33.4237549 14.0980463,32.7147686 C9.57920373,31.6512891 3.53034027,32.8511901 2.69591653,34.9433778 C1.86149279,37.0355655 5.9936514,40.3007729 11.0336724,40.3982092 Z" id="Oval-2" fill="#79C88D" transform="translate(11.647059, 36.360000) scale(-1, 1) rotate(-27.000000) translate(-11.647059, -36.360000) "></path>
                            <path d="M11.0336724,11.1082092 C14.3936865,11.1731668 17.6177564,9.47094902 20.7058824,6.00155594 C19.31322,4.992684 17.110608,4.13375488 14.0980463,3.42476858 C9.57920373,2.36128913 3.53034027,3.56119009 2.69591653,5.6533778 C1.86149279,7.74556551 5.9936514,11.0107729 11.0336724,11.1082092 Z" id="Oval-2" fill="#79C88D" transform="translate(11.647059, 7.070000) scale(-1, 1) rotate(-27.000000) translate(-11.647059, -7.070000) "></path>
                        </g>
                        <g id="stem-4" transform="translate(54.355826, 87.304474) rotate(84.000000) translate(-54.355826, -87.304474) translate(31.855826, 35.304474)">
                            <path d="M12.7450569,5.24796461 L33.7369154,102.710165" id="Line-2" stroke-linecap="square"></path>
                            <path d="M25.4258627,100.92382 C28.2628482,100.995482 30.6071175,100.636959 32.4586706,99.8482513 C32.0386608,95.6964426 30.5568466,93.229454 28.0132281,92.4472853 C24.1978004,91.2740322 21.7945509,93.4303233 21.0900158,95.7384691 C20.3854806,98.0466148 21.1703845,100.816326 25.4258627,100.92382 Z" id="Oval-2" fill="#79C88D" transform="translate(26.660101, 96.524978) scale(-1, 1) rotate(-27.000000) translate(-26.660101, -96.524978) "></path>
                            <path d="M22.4270258,85.929635 C25.2640113,86.0012975 27.6082806,85.6427748 29.4598336,84.8540667 C29.0398238,80.702258 27.5580097,78.2352693 25.0143912,77.4531006 C21.1989635,76.2798476 18.795714,78.4361387 18.0911789,80.7442844 C17.3866437,83.0524302 18.1715475,85.8221411 22.4270258,85.929635 Z" id="Oval-2" fill="#79C88D" transform="translate(23.661264, 81.530793) scale(-1, 1) rotate(-27.000000) translate(-23.661264, -81.530793) "></path>
                            <path d="M13.4615819,44.619102 C16.2985674,44.6907646 18.6428367,44.3322418 20.4943898,43.5435338 C20.07438,39.3917251 18.5925659,36.9247364 16.0489474,36.1425677 C12.2335196,34.9693147 9.83027019,37.1256057 9.12573502,39.4337515 C8.42119985,41.7418973 9.2061037,44.5116082 13.4615819,44.619102 Z" id="Oval-2" fill="#79C88D" transform="translate(14.695820, 40.220260) scale(-1, 1) rotate(-46.000000) translate(-14.695820, -40.220260) "></path>
                            <path d="M8.96332655,25.126662 C11.800312,25.1983246 14.1445813,24.8398018 15.9961344,24.0510938 C15.5761246,19.8992851 14.0943105,17.4322964 11.550692,16.6501277 C7.73526423,15.4768747 5.3320148,17.6331657 4.62747964,19.9413115 C3.92294447,22.2494573 4.70784832,25.0191682 8.96332655,25.126662 Z" id="Oval-2" fill="#79C88D" transform="translate(10.197565, 20.727820) scale(-1, 1) rotate(-46.000000) translate(-10.197565, -20.727820) "></path>
                            <path d="M5.96448963,11.6318959 C8.80147512,11.7035584 11.1457444,11.3450357 12.9972975,10.5563276 C12.5772877,6.40451893 11.0954735,3.93753024 8.55185505,3.15536155 C4.73642731,1.98210851 2.33317788,4.13839959 1.62864271,6.44654535 C0.924107548,8.75469111 1.7090114,11.524402 5.96448963,11.6318959 Z" id="Oval-2" fill="#79C88D" transform="translate(7.198728, 7.233054) scale(-1, 1) rotate(-46.000000) translate(-7.198728, -7.233054) "></path>
                            <path d="M16.4604189,11.6318959 C19.2974043,11.7035584 21.6416736,11.3450357 23.4932267,10.5563276 C23.0732169,6.40451893 21.5914028,3.93753024 19.0477843,3.15536155 C15.2323565,1.98210851 12.8291071,4.13839959 12.1245719,6.44654535 C11.4200368,8.75469111 12.2049406,11.524402 16.4604189,11.6318959 Z" id="Oval-2" fill="#79C88D" transform="translate(17.694657, 7.233054) rotate(-46.000000) translate(-17.694657, -7.233054) "></path>
                            <path d="M35.9528589,94.0999113 C38.7898443,94.1715738 41.1341136,93.8130511 42.9856667,93.024343 C42.5656569,88.8725343 41.0838428,86.4055456 38.5402243,85.6233769 C34.7247965,84.4501239 32.3215471,86.606415 31.6170119,88.9145607 C30.9124768,91.2227065 31.6973806,93.9924174 35.9528589,94.0999113 Z" id="Oval-2" fill="#79C88D" transform="translate(37.187097, 89.701069) rotate(-46.000000) translate(-37.187097, -89.701069) "></path>
                            <path d="M28.4557666,64.111542 C31.292752,64.1832046 33.6370213,63.8246818 35.4885744,63.0359738 C35.0685646,58.8841651 33.5867505,56.4171764 31.043132,55.6350077 C27.2277042,54.4617547 24.8244548,56.6180457 24.1199196,58.9261915 C23.4153845,61.2343373 24.2002883,64.0040482 28.4557666,64.111542 Z" id="Oval-2" fill="#79C88D" transform="translate(29.690005, 59.712700) rotate(-46.000000) translate(-29.690005, -59.712700) "></path>
                            <path d="M25.4569296,46.1185205 C28.2939151,46.190183 30.6381844,45.8316603 32.4897375,45.0429522 C32.0697277,40.8911435 30.5879135,38.4241549 28.0442951,37.6419862 C24.2288673,36.4687331 21.8256179,38.6250242 21.1210827,40.93317 C20.4165475,43.2413157 21.2014514,46.0110267 25.4569296,46.1185205 Z" id="Oval-2" fill="#79C88D" transform="translate(26.691168, 41.719679) rotate(-46.000000) translate(-26.691168, -41.719679) "></path>
                        </g>
                    </g>
                </g>
            </g>
        </g>
    </g>
</svg>
