<?xml version="1.0" standalone="no"?>
<!DOCTYPE svg PUBLIC "-//W3C//DTD SVG 20010904//EN"
 "http://www.w3.org/TR/2001/REC-SVG-20010904/DTD/svg10.dtd">
<svg version="1.0" xmlns="http://www.w3.org/2000/svg"
 width="736.000000pt" height="736.000000pt" viewBox="0 0 736.000000 736.000000"
 preserveAspectRatio="xMidYMid meet">
<metadata>
Created by potrace 1.11, written by Peter Selinger 2001-2013
</metadata>
<g transform="translate(0.000000,736.000000) scale(0.100000,-0.100000)"
fill="#000000" stroke="none">
<path d="M2048 6335 c-2 -2 -33 -6 -68 -9 -36 -3 -76 -8 -90 -10 -14 -3 -41
-7 -60 -10 -19 -3 -46 -8 -60 -10 -14 -3 -41 -7 -60 -10 -19 -3 -46 -8 -60
-11 -14 -3 -36 -8 -50 -11 -14 -3 -34 -8 -45 -11 -11 -4 -24 -8 -30 -9 -77
-18 -328 -106 -333 -116 -2 -5 -12 -8 -21 -8 -10 0 -21 -3 -25 -7 -4 -5 -11
-8 -14 -8 -4 -1 -27 -12 -52 -25 -25 -13 -67 -35 -95 -49 -27 -13 -52 -27 -55
-30 -3 -3 -21 -15 -40 -25 -19 -11 -37 -22 -40 -25 -3 -4 -25 -19 -50 -35
-201 -131 -432 -395 -528 -606 -29 -63 -70 -176 -77 -213 -2 -9 -6 -20 -8 -25
-3 -4 -8 -23 -11 -42 -3 -19 -8 -46 -11 -60 -24 -114 -24 -399 0 -550 2 -14 6
-38 9 -55 11 -70 18 -102 70 -305 11 -42 78 -226 110 -304 68 -164 184 -392
272 -536 22 -36 47 -76 55 -90 8 -14 16 -27 20 -30 3 -3 16 -23 29 -45 13 -22
26 -42 29 -45 4 -3 30 -41 60 -85 30 -44 57 -82 60 -85 3 -3 33 -41 66 -84 33
-43 64 -84 70 -90 9 -10 76 -92 115 -140 74 -92 333 -353 455 -461 44 -38 85
-74 91 -80 40 -36 148 -122 196 -157 68 -49 134 -98 144 -106 5 -5 21 -15 34
-22 14 -7 31 -19 38 -27 7 -7 19 -13 27 -13 7 0 15 -3 17 -8 5 -12 229 -145
248 -147 3 -1 28 -11 55 -24 119 -55 156 -71 182 -77 14 -4 38 -13 52 -20 14
-8 33 -14 42 -14 8 0 20 -5 27 -12 7 -7 12 -9 12 -5 0 3 20 -2 45 -13 25 -11
45 -17 45 -15 0 3 12 0 28 -6 15 -6 34 -12 42 -14 8 -2 60 -15 115 -29 55 -13
111 -27 125 -30 14 -3 36 -7 50 -10 14 -3 36 -8 50 -11 43 -9 74 -15 105 -20
17 -2 41 -6 55 -9 14 -3 41 -7 60 -10 19 -3 49 -7 65 -10 28 -5 92 -13 160
-21 17 -2 53 -6 80 -9 28 -4 77 -9 110 -11 33 -2 92 -7 130 -10 291 -26 838
-34 1220 -19 94 3 205 7 247 8 43 0 78 3 78 6 0 3 28 5 63 6 52 1 196 9 312
19 17 1 66 5 110 9 74 6 174 15 235 21 14 1 59 6 100 9 41 4 91 9 110 11 19 2
62 7 95 10 33 3 74 8 90 10 27 3 72 9 160 20 17 2 60 7 97 10 37 4 75 8 85 10
36 6 168 19 176 17 25 -7 9 52 -73 280 -50 139 -98 271 -107 293 -8 22 -42
108 -73 192 -55 142 -66 169 -100 248 -8 17 -14 32 -15 35 -4 13 -19 48 -33
80 -8 19 -14 35 -13 35 3 0 -39 94 -128 288 -23 49 -41 91 -41 94 0 4 -132
281 -150 315 -5 9 -46 88 -91 175 -45 87 -85 163 -89 168 -4 6 -24 42 -45 80
-69 128 -129 230 -137 233 -4 2 -8 8 -8 13 0 10 -130 224 -149 246 -6 7 -11
15 -11 18 0 3 -5 11 -10 18 -6 7 -29 41 -52 77 -23 36 -48 71 -55 78 -7 7 -13
17 -13 22 0 5 -6 15 -13 22 -7 7 -41 54 -76 103 -35 50 -68 92 -72 93 -5 2 -9
8 -9 14 0 6 -12 25 -27 43 -16 18 -39 48 -53 66 -14 18 -32 40 -40 49 -8 9
-34 40 -57 70 -24 30 -59 73 -79 95 -19 22 -63 71 -97 109 -83 94 -286 296
-376 376 -41 36 -79 70 -85 75 -6 6 -56 47 -111 91 -169 135 -268 203 -470
326 -38 24 -71 46 -73 50 -2 5 -10 8 -17 8 -7 0 -39 15 -72 33 -188 105 -474
225 -683 287 -41 12 -83 26 -92 31 -10 5 -27 9 -39 9 -11 0 -28 4 -37 9 -9 5
-30 11 -47 14 -16 3 -43 9 -60 13 -16 3 -37 8 -45 9 -8 1 -26 5 -40 9 -14 4
-38 9 -55 11 -16 2 -31 4 -32 6 -7 5 -104 20 -228 35 -27 3 -63 8 -80 11 -37
5 -581 13 -587 8z"/>
</g>
</svg>
