<?xml version="1.0" encoding="UTF-8"?>
<svg width="13px" height="16px" viewBox="0 0 13 16" version="1.1" xmlns="http://www.w3.org/2000/svg" xmlns:xlink="http://www.w3.org/1999/xlink">
    <!-- Generator: Sketch 50.2 (55047) - http://www.bohemiancoding.com/sketch -->
    <title>book-cabinet</title>
    <desc>Created with Sketch.</desc>
    <defs></defs>
    <g id="Symbols" stroke="none" stroke-width="1" fill="none" fill-rule="evenodd">
        <g id="icon/link/shelf" transform="translate(-2.000000, 0.000000)" fill="#1C2233" fill-rule="nonzero">
            <g id="book-cabinet" transform="translate(2.000000, 0.000000)">
                <path d="M12.16,10.24 L10.24,10.24 L10.24,7.36 C10.24,7.18326888 10.0967311,7.04 9.92,7.04 C9.74326888,7.04 9.6,7.18326888 9.6,7.36 L9.6,10.24 L8.96,10.24 L8.96,8 C8.96,7.82326888 8.81673112,7.68 8.64,7.68 C8.46326888,7.68 8.32,7.82326888 8.32,8 L8.32,10.24 L7.68,10.24 L7.68,9.28 C7.68,9.10326888 7.53673112,8.96 7.36,8.96 C7.18326888,8.96 7.04,9.10326888 7.04,9.28 L7.04,10.24 L0.64,10.24 L0.64,5.76 L12.16,5.76 L12.16,10.24 Z" id="Shape" opacity="0.2"></path>
                <path d="M11.84,0 L0.96,0 C0.430040593,0.000564387495 0.000564387495,0.430040593 0,0.96 L0,15.04 C0.000564387495,15.5699594 0.430040593,15.9994356 0.96,16 L11.84,16 C12.3699594,15.9994356 12.7994356,15.5699594 12.8,15.04 L12.8,0.96 C12.7994356,0.430040593 12.3699594,0.000564387495 11.84,0 Z M12.16,15.04 C12.1596479,15.2165851 12.0165851,15.3596479 11.84,15.36 L7.68,15.36 L7.68,13.76 C7.68,13.5832689 7.53673112,13.44 7.36,13.44 C7.18326888,13.44 7.04,13.5832689 7.04,13.76 L7.04,15.36 L6.4,15.36 L6.4,12.48 C6.4,12.3032689 6.25673112,12.16 6.08,12.16 C5.90326888,12.16 5.76,12.3032689 5.76,12.48 L5.76,15.36 L5.12,15.36 L5.12,12.48 C5.12,12.3032689 4.97673112,12.16 4.8,12.16 C4.62326888,12.16 4.48,12.3032689 4.48,12.48 L4.48,15.36 L3.1104,15.36 L3.823296,13.221248 C3.8734238,13.0554719 3.78256647,12.8798999 3.6182821,12.8250807 C3.45399774,12.7702615 3.27591432,12.8560921 3.216448,13.018752 L2.43616,15.36 L0.96,15.36 C0.783414936,15.3596479 0.640352115,15.2165851 0.64,15.04 L0.64,10.88 L12.16,10.88 L12.16,15.04 Z M12.16,10.24 L10.24,10.24 L10.24,7.36 C10.24,7.18326888 10.0967311,7.04 9.92,7.04 C9.74326888,7.04 9.6,7.18326888 9.6,7.36 L9.6,10.24 L8.96,10.24 L8.96,8 C8.96,7.82326888 8.81673112,7.68 8.64,7.68 C8.46326888,7.68 8.32,7.82326888 8.32,8 L8.32,10.24 L7.68,10.24 L7.68,9.28 C7.68,9.10326888 7.53673112,8.96 7.36,8.96 C7.18326888,8.96 7.04,9.10326888 7.04,9.28 L7.04,10.24 L0.64,10.24 L0.64,5.76 L12.16,5.76 L12.16,10.24 Z M6.523776,5.12 L5.743424,2.778752 C5.68395768,2.61609207 5.50587426,2.53026151 5.3415899,2.58508072 C5.17730553,2.63989993 5.0864482,2.81547194 5.136576,2.981248 L5.8496,5.12 L4.48,5.12 L4.48,2.24 C4.48,2.06326888 4.33673112,1.92 4.16,1.92 C3.98326888,1.92 3.84,2.06326888 3.84,2.24 L3.84,5.12 L3.2,5.12 L3.2,2.88 C3.2,2.70326888 3.05673112,2.56 2.88,2.56 C2.70326888,2.56 2.56,2.70326888 2.56,2.88 L2.56,5.12 L0.64,5.12 L0.64,0.96 C0.640352115,0.783414936 0.783414936,0.640352115 0.96,0.64 L11.84,0.64 C12.0165851,0.640352115 12.1596479,0.783414936 12.16,0.96 L12.16,5.12 L6.523776,5.12 Z" id="Shape"></path>
            </g>
        </g>
    </g>
</svg>