<?xml version="1.0" encoding="UTF-8"?>
<svg width="16px" height="14px" viewBox="0 0 16 14" version="1.1" xmlns="http://www.w3.org/2000/svg" xmlns:xlink="http://www.w3.org/1999/xlink">
    <!-- Generator: Sketch 50.2 (55047) - http://www.bohemiancoding.com/sketch -->
    <title>camera</title>
    <desc>Created with Sketch.</desc>
    <defs></defs>
    <g id="Symbols" stroke="none" stroke-width="1" fill="none" fill-rule="evenodd">
        <g id="icon/camera/dark-blue" transform="translate(0.000000, -1.000000)" fill="#1C2233" fill-rule="nonzero">
            <g id="camera" transform="translate(0.000000, 1.000000)">
                <path d="M9.28409571,4.79590385 C9.48884303,5.19316354 9.59707061,5.63309026 9.5999997,6.07999981 C9.59823614,7.66984878 8.30984876,8.95823616 6.71999979,8.95999972 C6.27309263,8.95705141 5.83317032,8.84882491 5.43590383,8.64409573 C5.99194593,9.76553442 7.21036222,10.3975771 8.44737871,10.2062717 C9.6843952,10.0149662 10.6549662,9.04439522 10.8462716,7.80737873 C11.0375771,6.57036224 10.4055344,5.35194595 9.28409571,4.79590385 Z" id="Shape" opacity="0.2"></path>
                <path d="M14.7199995,2.55999992 L14.0799996,2.55999992 L14.0799996,10.8799997 C14.0795412,11.2332719 13.7932718,11.5195413 13.4399996,11.5199996 L0.63999998,11.5199996 L0.63999998,12.1599996 C0.640458341,12.5132718 0.926727765,12.7995412 1.27999996,12.7999996 L14.7199995,12.7999996 C15.0732717,12.7995412 15.3595412,12.5132718 15.3599995,12.1599996 L15.3599995,3.1999999 C15.3595412,2.8467277 15.0732717,2.56045828 14.7199995,2.55999992 Z" id="Shape" opacity="0.2"></path>
                <path d="M14.7199995,1.91999994 L12.1847036,1.91999994 L11.8190716,1.00595197 C11.5779409,0.396955375 10.9884328,-0.00221268713 10.3334397,-2.79106469e-13 L5.66655982,-2.79106469e-13 C5.0115667,-0.00221268713 4.42205861,0.396955375 4.18092787,1.00595197 L3.81529588,1.91999994 L1.27999996,1.91999994 C0.573367967,1.92070551 0.00070557416,2.49336791 0,3.1999999 L0,12.1599996 C0.00070557416,12.8666316 0.573367967,13.439294 1.27999996,13.4399996 L14.7199995,13.4399996 C15.4266315,13.439294 15.9992939,12.8666316 15.9999995,12.1599996 L15.9999995,3.1999999 C15.9992939,2.49336791 15.4266315,1.92070551 14.7199995,1.91999994 Z M15.3599995,12.1599996 C15.3595412,12.5132718 15.0732717,12.7995412 14.7199995,12.7999996 L1.27999996,12.7999996 C0.926727765,12.7995412 0.640458341,12.5132718 0.63999998,12.1599996 L0.63999998,3.1999999 C0.640458341,2.8467277 0.926727765,2.56045828 1.27999996,2.55999992 L4.24844787,2.55999992 L4.77529585,1.24345596 C4.9200309,0.878170754 5.27364769,0.638744307 5.66655982,0.63999998 L10.3334397,0.63999998 C10.7263518,0.638744307 11.0799686,0.878170754 11.2247036,1.24345596 L11.7515516,2.55999992 L14.7199995,2.55999992 C15.0732717,2.56045828 15.3595412,2.8467277 15.3599995,3.1999999 L15.3599995,12.1599996 Z" id="Shape"></path>
                <path d="M7.99999975,3.83999988 C6.05595749,3.83999988 4.47999986,5.41595751 4.47999986,7.35999977 C4.47999986,9.30404203 6.05595749,10.8799997 7.99999975,10.8799997 C9.94404201,10.8799997 11.5199996,9.30404203 11.5199996,7.35999977 C11.5199996,6.42643776 11.1491436,5.53111201 10.4890155,4.87098398 C9.82888751,4.21085595 8.93356177,3.83999988 7.99999975,3.83999988 Z M7.99999975,10.2399997 C6.40941972,10.2399997 5.11999984,8.9505798 5.11999984,7.35999977 C5.11999984,5.76941974 6.40941972,4.47999986 7.99999975,4.47999986 C9.59057978,4.47999986 10.8799997,5.76941974 10.8799997,7.35999977 C10.8782361,8.94984874 9.58984872,10.2382361 7.99999975,10.2399997 Z" id="Shape"></path>
            </g>
        </g>
    </g>
</svg>