<?xml version="1.0" encoding="UTF-8"?>
<svg width="16px" height="16px" viewBox="0 0 16 16" version="1.1" xmlns="http://www.w3.org/2000/svg" xmlns:xlink="http://www.w3.org/1999/xlink">
    <!-- Generator: Sketch 50.2 (55047) - http://www.bohemiancoding.com/sketch -->
    <title>icon/link/checkbox-checked-green</title>
    <desc>Created with Sketch.</desc>
    <defs></defs>
    <g id="icon/link/checkbox-checked-green" stroke="none" stroke-width="1" fill="none" fill-rule="evenodd">
        <g id="checkboxes" fill="#1EFF7A" fill-rule="nonzero">
            <path d="M12.3636364,4.36363636 L12.3636364,12.3636364 C12.3636364,12.765298 12.0380253,13.0909091 11.6363636,13.0909091 L0.727272727,13.0909091 L0.727272727,15.2727273 L14.5454545,15.2727273 L14.5454545,1.45454545 L12.3636364,4.36363636 Z" id="Shape" opacity="0.2"></path>
            <path d="M15.9034182,0.117163636 C15.7672384,-0.030203883 15.5374277,-0.0394145382 15.3898909,0.0965818182 C12.2520727,2.99287273 8.49214545,9.12850909 7.54261818,10.7173091 C6.68043636,9.99003636 4.36363636,8.03978182 3.49898182,7.35156364 C3.39723258,7.27062674 3.26003308,7.25012053 3.13906505,7.29776951 C3.01809702,7.34541849 2.93173838,7.45398364 2.91251959,7.58256951 C2.89330081,7.71115539 2.94414167,7.84022674 3.04589091,7.92116364 C4.10341818,8.76210909 7.36836364,11.5226909 7.40101818,11.5502545 C7.48301177,11.6198441 7.59163385,11.6495098 7.69761758,11.6312586 C7.80360132,11.6130073 7.89604335,11.5487167 7.95003636,11.4557091 C7.99476364,11.3797091 12.4173818,3.82930909 15.8825455,0.6304 C15.9534456,0.565151104 15.9954871,0.474385042 15.9994025,0.378109823 C16.0033179,0.281834603 15.9687857,0.187954381 15.9034182,0.117163636 Z" id="Shape"></path>
            <path d="M14.9090909,5.81818182 C14.7082601,5.81818182 14.5454545,5.98098736 14.5454545,6.18181818 L14.5454545,14.9090909 C14.5454545,15.1099217 14.382649,15.2727273 14.1818182,15.2727273 L1.09090909,15.2727273 C0.890078273,15.2727273 0.727272727,15.1099217 0.727272727,14.9090909 L0.727272727,1.81818182 C0.727272727,1.617351 0.890078273,1.45454545 1.09090909,1.45454545 L11.2727273,1.45454545 C11.4735581,1.45454545 11.6363636,1.29173991 11.6363636,1.09090909 C11.6363636,0.890078273 11.4735581,0.727272727 11.2727273,0.727272727 L1.09090909,0.727272727 C0.488416637,0.727272727 1.61486985e-16,1.21568936 0,1.81818182 L0,14.9090909 C1.61486985e-16,15.5115834 0.488416637,16 1.09090909,16 L14.1818182,16 C14.7843106,16 15.2727273,15.5115834 15.2727273,14.9090909 L15.2727273,6.18181818 C15.2727273,5.98098736 15.1099217,5.81818182 14.9090909,5.81818182 Z" id="Shape"></path>
        </g>
    </g>
</svg>