<?xml version="1.0" encoding="UTF-8"?>
<svg width="15px" height="16px" viewBox="0 0 15 16" version="1.1" xmlns="http://www.w3.org/2000/svg" xmlns:xlink="http://www.w3.org/1999/xlink">
    <!-- Generator: Sketch 50.2 (55047) - http://www.bohemiancoding.com/sketch -->
    <title>document-page</title>
    <desc>Created with Sketch.</desc>
    <defs></defs>
    <g id="Symbols" stroke="none" stroke-width="1" fill="none" fill-rule="evenodd">
        <g id="icon/document-page/dark-blue" transform="translate(-1.000000, 0.000000)" fill="#1C2233" fill-rule="nonzero">
            <g id="document-page" transform="translate(1.000000, 0.000000)">
                <path d="M11.2,0.64 L10.24,0.64 L10.24,11.84 C10.24,12.0167311 10.0967311,12.16 9.92,12.16 L0.64,12.16 L0.64,13.12 C0.64,13.2967311 0.78326888,13.44 0.96,13.44 L11.2,13.44 C11.3767311,13.44 11.52,13.2967311 11.52,13.12 L11.52,0.96 C11.52,0.78326888 11.3767311,0.64 11.2,0.64 Z" id="Shape" opacity="0.2"></path>
                <path d="M12.8,2.56 L12.8,14.4 C12.8,14.5767311 12.6567311,14.72 12.48,14.72 L2.56,14.72 L2.56,15.36 L13.44,15.36 L13.44,2.56 L12.8,2.56 Z" id="Shape" opacity="0.2"></path>
                <path d="M13.12,1.92 L12.16,1.92 L12.16,0.96 C12.16,0.42980664 11.7301934,3.24649801e-17 11.2,0 L0.96,0 C0.42980664,-3.24649801e-17 0,0.42980664 0,0.96 L0,13.12 C0,13.6501934 0.42980664,14.08 0.96,14.08 L1.92,14.08 L1.92,15.04 C1.92,15.5701934 2.34980664,16 2.88,16 L13.12,16 C13.6501934,16 14.08,15.5701934 14.08,15.04 L14.08,2.88 C14.08,2.34980664 13.6501934,1.92 13.12,1.92 Z M0.64,13.12 L0.64,0.96 C0.64,0.78326888 0.78326888,0.64 0.96,0.64 L11.2,0.64 C11.3767311,0.64 11.52,0.78326888 11.52,0.96 L11.52,13.12 C11.52,13.2967311 11.3767311,13.44 11.2,13.44 L0.96,13.44 C0.78326888,13.44 0.64,13.2967311 0.64,13.12 Z M13.44,15.04 C13.44,15.2167311 13.2967311,15.36 13.12,15.36 L2.88,15.36 C2.70326888,15.36 2.56,15.2167311 2.56,15.04 L2.56,14.08 L11.2,14.08 C11.7301934,14.08 12.16,13.6501934 12.16,13.12 L12.16,2.56 L13.12,2.56 C13.2967311,2.56 13.44,2.70326888 13.44,2.88 L13.44,15.04 Z" id="Shape"></path>
                <path d="M2.24,5.12 L4.48,5.12 C4.65673112,5.12 4.8,4.97673112 4.8,4.8 C4.8,4.62326888 4.65673112,4.48 4.48,4.48 L2.24,4.48 C2.06326888,4.48 1.92,4.62326888 1.92,4.8 C1.92,4.97673112 2.06326888,5.12 2.24,5.12 Z" id="Shape"></path>
                <path d="M2.24,3.2 L4.48,3.2 C4.65673112,3.2 4.8,3.05673112 4.8,2.88 C4.8,2.70326888 4.65673112,2.56 4.48,2.56 L2.24,2.56 C2.06326888,2.56 1.92,2.70326888 1.92,2.88 C1.92,3.05673112 2.06326888,3.2 2.24,3.2 Z" id="Shape"></path>
                <path d="M2.24,7.04 L4.48,7.04 C4.65673112,7.04 4.8,6.89673112 4.8,6.72 C4.8,6.54326888 4.65673112,6.4 4.48,6.4 L2.24,6.4 C2.06326888,6.4 1.92,6.54326888 1.92,6.72 C1.92,6.89673112 2.06326888,7.04 2.24,7.04 Z" id="Shape"></path>
                <path d="M9.92,8.32 L2.24,8.32 C2.06326888,8.32 1.92,8.46326888 1.92,8.64 C1.92,8.81673112 2.06326888,8.96 2.24,8.96 L9.92,8.96 C10.0967311,8.96 10.24,8.81673112 10.24,8.64 C10.24,8.46326888 10.0967311,8.32 9.92,8.32 Z" id="Shape"></path>
                <path d="M9.92,10.24 L2.24,10.24 C2.06326888,10.24 1.92,10.3832689 1.92,10.56 C1.92,10.7367311 2.06326888,10.88 2.24,10.88 L9.92,10.88 C10.0967311,10.88 10.24,10.7367311 10.24,10.56 C10.24,10.3832689 10.0967311,10.24 9.92,10.24 Z" id="Shape"></path>
                <path d="M9.6,2.56 L7.04,2.56 C6.68653776,2.56 6.4,2.84653776 6.4,3.2 L6.4,6.4 C6.4,6.75346224 6.68653776,7.04 7.04,7.04 L9.6,7.04 C9.95346224,7.04 10.24,6.75346224 10.24,6.4 L10.24,3.2 C10.24,2.84653776 9.95346224,2.56 9.6,2.56 Z M9.6,6.4 L7.04,6.4 L7.04,3.2 L9.6,3.2 L9.6,6.4 Z" id="Shape"></path>
            </g>
        </g>
    </g>
</svg>