<?xml version="1.0" encoding="UTF-8"?>
<svg width="16px" height="13px" viewBox="0 0 16 13" version="1.1" xmlns="http://www.w3.org/2000/svg" xmlns:xlink="http://www.w3.org/1999/xlink">
    <!-- Generator: Sketch 50.2 (55047) - http://www.bohemiancoding.com/sketch -->
    <title>doodle</title>
    <desc>Created with Sketch.</desc>
    <defs></defs>
    <g id="Symbols" stroke="none" stroke-width="1" fill="none" fill-rule="evenodd">
        <g id="icon/doodle/dark-blue" transform="translate(0.000000, -2.000000)" fill="#1C2233" fill-rule="nonzero">
            <g id="doodle" transform="translate(0.000000, 2.000000)">
                <polyline id="Shape" opacity="0.2" points="8.32 7.68 14.72 1.28 15.6 2.32 10.19968 8 8.32 7.68"></polyline>
                <path d="M15.718784,1.63872 L14.361152,0.28128 C13.9862575,-0.0935719764 13.3784785,-0.0935719764 13.003584,0.28128 L7.961152,5.323456 C7.78107312,5.50354839 7.67993555,5.74781647 7.68,6.002496 L7.68,7.68 C7.68,8.03346224 7.96653776,8.32 8.32,8.32 L9.997632,8.32 C10.252255,8.3199374 10.4964317,8.21876301 10.67648,8.03872 L15.718784,2.996544 C15.8988737,2.81650181 16.000051,2.57228369 16.000051,2.317632 C16.000051,2.06298031 15.8988737,1.81876219 15.718784,1.63872 Z M10.223872,7.58624 C10.1640516,7.6465205 10.0825563,7.68029438 9.997632,7.68 L8.31999883,7.68000191 L8.32,6.002496 C8.31977018,5.91749053 8.3535276,5.83591968 8.41376,5.775936 L12.324672,1.865024 L14.134912,3.675328 L10.223872,7.58624 Z M15.26624,2.543744 L14.58752,3.222784 L12.777216,1.41248 L13.456064,0.73376 C13.581024,0.60883778 13.783584,0.60883778 13.908544,0.73376 L15.266176,2.091264 C15.3911159,2.21620628 15.3911445,2.41876638 15.26624,2.543744 Z" id="Shape"></path>
                <path d="M7.816576,9.6576 C7.0939481,10.0689384 6.27093473,10.2706248 5.44,10.24 C5.13770544,10.2300865 4.84335336,10.1407324 4.58656,9.980928 C5.25827926,9.26208385 5.67119236,8.33982492 5.76,7.36 C5.77996204,6.9298441 5.61781092,6.51117607 5.31331743,6.20668257 C5.00882393,5.90218908 4.5901559,5.74003796 4.16,5.76 C3.72711379,5.72985475 3.30239599,5.88871984 2.99555791,6.19555791 C2.68871984,6.50239599 2.52985475,6.92711379 2.56,7.36 C2.54600196,8.36048899 2.92946064,9.32567246 3.62624,10.043776 C2.75270781,10.939425 1.56999585,11.4675016 0.32,11.52 C0.14326888,11.52 -8.665351e-16,11.6632689 -8.8817842e-16,11.84 C-9.0982174e-16,12.0167311 0.14326888,12.16 0.32,12.16 C1.76401644,12.1071776 3.13190616,11.4989719 4.138432,10.462208 C4.52287832,10.7241602 4.97491658,10.8692605 5.44,10.88 C6.40310369,10.9166781 7.35627342,10.6741294 8.184704,10.181568 C8.32934074,10.0799123 8.36418373,9.88025275 8.26252799,9.73561601 C8.16087225,9.59097926 7.96121275,9.55613627 7.816576,9.657792 L7.816576,9.6576 Z M4.068736,9.574784 C3.49728499,8.98069799 3.18485367,8.18417537 3.2,7.36 C3.17126044,7.09763018 3.2631258,6.83639215 3.44975897,6.64975897 C3.63639215,6.4631258 3.89763018,6.37126044 4.16,6.4 C4.42037707,6.37940657 4.67670622,6.47391509 4.86139557,6.65860443 C5.04608491,6.84329378 5.14059343,7.09962293 5.12,7.36 C5.01747763,8.19233567 4.64873684,8.96925945 4.068736,9.574976 L4.068736,9.574784 Z" id="Shape"></path>
            </g>
        </g>
    </g>
</svg>