<?xml version="1.0" encoding="UTF-8"?>
<svg width="16px" height="16px" viewBox="0 0 16 16" version="1.1" xmlns="http://www.w3.org/2000/svg" xmlns:xlink="http://www.w3.org/1999/xlink">
    <!-- Generator: Sketch 50.2 (55047) - http://www.bohemiancoding.com/sketch -->
    <title>forward-time</title>
    <desc>Created with Sketch.</desc>
    <defs></defs>
    <g id="Symbols" stroke="none" stroke-width="1" fill="none" fill-rule="evenodd">
        <g id="icon/forward-time/dark-blue" fill="#1C2233" fill-rule="nonzero">
            <g id="forward-time">
                <circle id="Oval" opacity="0.2" cx="7.69230769" cy="7.69230769" r="5.23076923"></circle>
                <path d="M15.0769231,2.46153846 C14.9069893,2.46153846 14.7692308,2.599297 14.7692308,2.76923077 L14.7692308,4.68676923 C13.4285349,1.53557887 10.1652349,-0.348947085 6.7657887,0.0648546363 C3.36634255,0.478656358 0.650430509,3.09100919 0.104849128,6.47180894 C-0.440732252,9.85260869 1.31556853,13.1866712 4.41228368,14.6488003 C7.50899884,16.1109293 11.1994432,15.3485737 13.4633231,12.7790769 C13.5361063,12.696631 13.5593765,12.5816185 13.5243678,12.4773634 C13.4893592,12.3731083 13.4013905,12.2954495 13.2935986,12.2736403 C13.1858067,12.2518311 13.0745679,12.2891849 13.0017846,12.3716308 C10.9191483,14.7416716 7.51980264,15.4480693 4.66535408,14.1039745 C1.81090552,12.7598797 0.189942645,9.68953311 0.690164262,6.57436928 C1.19038588,3.45920544 3.69112179,1.05070617 6.82287716,0.667854118 C9.95463253,0.285002069 12.9619231,2.02015398 14.1978462,4.92307692 L12.6153846,4.92307692 C12.4454508,4.92307692 12.3076923,5.06083546 12.3076923,5.23076923 C12.3076923,5.400703 12.4454508,5.53846154 12.6153846,5.53846154 L15.0769231,5.53846154 C15.2468568,5.53846154 15.3846154,5.400703 15.3846154,5.23076923 L15.3846154,2.76923077 C15.3846154,2.6876257 15.3521979,2.60936295 15.2944944,2.55165945 C15.2367909,2.49395595 15.1585282,2.46153846 15.0769231,2.46153846 Z" id="Shape"></path>
                <path d="M7.69230769,3.69230769 C7.52237392,3.69230769 7.38461538,3.83006623 7.38461538,4 L7.38461538,7.69230769 L7.38461538,7.69329231 C7.38483461,7.77302416 7.41626872,7.84949984 7.47218462,7.90633846 L7.47452308,7.90984615 L9.93606154,10.3713846 C10.0566387,10.4889604 10.2493354,10.4877531 10.3684297,10.3686755 C10.4875241,10.249598 10.4887588,10.0569015 10.3712,9.93630769 L8,7.56504615 L8,4 C8,3.83006623 7.86224146,3.69230769 7.69230769,3.69230769 Z" id="Shape"></path>
            </g>
        </g>
    </g>
</svg>