<?xml version="1.0" encoding="UTF-8"?>
<svg width="15px" height="16px" viewBox="0 0 15 16" version="1.1" xmlns="http://www.w3.org/2000/svg" xmlns:xlink="http://www.w3.org/1999/xlink">
    <!-- Generator: Sketch 50.2 (55047) - http://www.bohemiancoding.com/sketch -->
    <title>front-page</title>
    <desc>Created with Sketch.</desc>
    <defs></defs>
    <g id="Symbols" stroke="none" stroke-width="1" fill="none" fill-rule="evenodd">
        <g id="icon/front-page/dark-blue" transform="translate(-1.000000, 0.000000)" fill="#1C2233" fill-rule="nonzero">
            <g id="front-page" transform="translate(1.000000, 0.000000)">
                <path d="M11.2,0.64 L10.24,0.64 L10.24,11.84 C10.24,12.0167311 10.0967311,12.16 9.92,12.16 L0.64,12.16 L0.64,13.12 C0.64,13.2967311 0.78326888,13.44 0.96,13.44 L11.2,13.44 C11.3767311,13.44 11.52,13.2967311 11.52,13.12 L11.52,0.96 C11.52,0.78326888 11.3767311,0.64 11.2,0.64 Z" id="Shape" opacity="0.2"></path>
                <path d="M12.8,2.56 L12.8,14.4 C12.8,14.5767311 12.6567311,14.72 12.48,14.72 L2.56,14.72 L2.56,15.36 L13.44,15.36 L13.44,2.56 L12.8,2.56 Z" id="Shape" opacity="0.2"></path>
                <path d="M13.12,1.92 L12.16,1.92 L12.16,0.96 C12.16,0.42980664 11.7301934,3.24649801e-17 11.2,0 L0.96,0 C0.42980664,-3.24649801e-17 0,0.42980664 0,0.96 L0,13.12 C0,13.6501934 0.42980664,14.08 0.96,14.08 L1.92,14.08 L1.92,15.04 C1.92,15.5701934 2.34980664,16 2.88,16 L13.12,16 C13.6501934,16 14.08,15.5701934 14.08,15.04 L14.08,2.88 C14.08,2.34980664 13.6501934,1.92 13.12,1.92 Z M0.64,13.12 L0.64,0.96 C0.64,0.78326888 0.78326888,0.64 0.96,0.64 L11.2,0.64 C11.3767311,0.64 11.52,0.78326888 11.52,0.96 L11.52,13.12 C11.52,13.2967311 11.3767311,13.44 11.2,13.44 L0.96,13.44 C0.78326888,13.44 0.64,13.2967311 0.64,13.12 Z M13.44,15.04 C13.44,15.2167311 13.2967311,15.36 13.12,15.36 L2.88,15.36 C2.70326888,15.36 2.56,15.2167311 2.56,15.04 L2.56,14.08 L11.2,14.08 C11.7301934,14.08 12.16,13.6501934 12.16,13.12 L12.16,2.56 L13.12,2.56 C13.2967311,2.56 13.44,2.70326888 13.44,2.88 L13.44,15.04 Z" id="Shape"></path>
                <path d="M9.92,7.68 L2.24,7.68 C2.06326888,7.68 1.92,7.82326888 1.92,8 C1.92,8.17673112 2.06326888,8.32 2.24,8.32 L9.92,8.32 C10.0967311,8.32 10.24,8.17673112 10.24,8 C10.24,7.82326888 10.0967311,7.68 9.92,7.68 Z" id="Shape"></path>
                <path d="M7.36,9.6 L2.24,9.6 C2.06326888,9.6 1.92,9.74326888 1.92,9.92 C1.92,10.0967311 2.06326888,10.24 2.24,10.24 L7.36,10.24 C7.53673112,10.24 7.68,10.0967311 7.68,9.92 C7.68,9.74326888 7.53673112,9.6 7.36,9.6 Z" id="Shape"></path>
                <path d="M9.6,1.92 L2.56,1.92 C2.20653776,1.92 1.92,2.20653776 1.92,2.56 L1.92,5.76 C1.92,6.11346224 2.20653776,6.4 2.56,6.4 L9.6,6.4 C9.95346224,6.4 10.24,6.11346224 10.24,5.76 L10.24,2.56 C10.24,2.20653776 9.95346224,1.92 9.6,1.92 Z M9.6,5.76 L2.56,5.76 L2.56,2.56 L9.6,2.56 L9.6,5.76 Z" id="Shape"></path>
            </g>
        </g>
    </g>
</svg>