<?xml version="1.0" encoding="UTF-8"?>
<svg width="13px" height="16px" viewBox="0 0 13 16" version="1.1" xmlns="http://www.w3.org/2000/svg" xmlns:xlink="http://www.w3.org/1999/xlink">
    <!-- Generator: Sketch 50.2 (55047) - http://www.bohemiancoding.com/sketch -->
    <title>gameboy</title>
    <desc>Created with Sketch.</desc>
    <defs></defs>
    <g id="Symbols" stroke="none" stroke-width="1" fill="none" fill-rule="evenodd">
        <g id="icon/gameboy/dark-blue" transform="translate(-2.000000, 0.000000)" fill="#1C2233" fill-rule="nonzero">
            <g id="gameboy" transform="translate(2.000000, 0.000000)">
                <path d="M10.56,0.64 L8.64,0.64 C9.16995941,0.640564387 9.59943561,1.07004059 9.6,1.6 L9.6,14.4 C9.59943561,14.9299594 9.16995941,15.3594356 8.64,15.36 L10.56,15.36 C11.0899594,15.3594356 11.5194356,14.9299594 11.52,14.4 L11.52,1.6 C11.5194356,1.07004059 11.0899594,0.640564387 10.56,0.64 Z" id="Shape" opacity="0.2"></path>
                <rect id="Rectangle-path" opacity="0.2" x="5.76" y="2.56" width="3.84" height="5.12"></rect>
                <path d="M10.56,0 L1.6,0 C0.716768392,0.00102277007 0.00102277007,0.716768392 0,1.6 L0,14.4 C0.00102277007,15.2832316 0.716768392,15.9989772 1.6,16 L10.56,16 C11.4432316,15.9989772 12.1589772,15.2832316 12.16,14.4 L12.16,1.6 C12.1589772,0.716768392 11.4432316,0.00102277007 10.56,0 Z M11.52,14.4 C11.5194356,14.9299594 11.0899594,15.3594356 10.56,15.36 L1.6,15.36 C1.07004059,15.3594356 0.640564387,14.9299594 0.64,14.4 L0.64,1.6 C0.640564387,1.07004059 1.07004059,0.640564387 1.6,0.64 L10.56,0.64 C11.0899594,0.640564387 11.5194356,1.07004059 11.52,1.6 L11.52,14.4 Z" id="Shape"></path>
                <path d="M9.6,1.92 L2.56,1.92 C2.20653776,1.92 1.92,2.20653776 1.92,2.56 L1.92,7.68 C1.92,8.03346224 2.20653776,8.32 2.56,8.32 L9.6,8.32 C9.95346224,8.32 10.24,8.03346224 10.24,7.68 L10.24,2.56 C10.24,2.20653776 9.95346224,1.92 9.6,1.92 Z M9.6,7.68 L2.56,7.68 L2.56,2.56 L9.6,2.56 L9.6,7.68 Z" id="Shape"></path>
                <path d="M4.8,11.52 L3.84,11.52 L3.84,10.56 C3.84,10.3832689 3.69673112,10.24 3.52,10.24 C3.34326888,10.24 3.2,10.3832689 3.2,10.56 L3.2,11.52 L2.24,11.52 C2.06326888,11.52 1.92,11.6632689 1.92,11.84 C1.92,12.0167311 2.06326888,12.16 2.24,12.16 L3.2,12.16 L3.2,13.12 C3.2,13.2967311 3.34326888,13.44 3.52,13.44 C3.69673112,13.44 3.84,13.2967311 3.84,13.12 L3.84,12.16 L4.8,12.16 C4.97673112,12.16 5.12,12.0167311 5.12,11.84 C5.12,11.6632689 4.97673112,11.52 4.8,11.52 Z" id="Shape"></path>
                <circle id="Oval" cx="7.68" cy="12.8" r="1"></circle>
                <circle id="Oval" cx="9.6" cy="10.88" r="1"></circle>
            </g>
        </g>
    </g>
</svg>