<?xml version="1.0" encoding="UTF-8"?>
<svg width="10px" height="16px" viewBox="0 0 10 16" version="1.1" xmlns="http://www.w3.org/2000/svg" xmlns:xlink="http://www.w3.org/1999/xlink">
    <!-- Generator: Sketch 50.2 (55047) - http://www.bohemiancoding.com/sketch -->
    <title>google-phone</title>
    <desc>Created with Sketch.</desc>
    <defs></defs>
    <g id="Symbols" stroke="none" stroke-width="1" fill="none" fill-rule="evenodd">
        <g id="icon/link/andorid" transform="translate(-3.000000, 0.000000)" fill="#1C2233" fill-rule="nonzero">
            <g id="google-phone" transform="translate(3.000000, 0.000000)">
                <path d="M7.04,0.64 L7.04,14.5536 C7.04132103,14.7085729 6.93028656,14.841733 6.7776,14.868288 C6.6112,14.896384 6.434688,14.92768 6.251008,14.959872 C5.520256,15.088832 4.660672,15.23808 3.824192,15.312256 C4.148288,15.340288 4.474048,15.36 4.8,15.36 C5.93283191,15.3200691 7.06039419,15.1861693 8.171072,14.95968 C8.354752,14.92768 8.530944,14.896256 8.697664,14.868096 C8.85025292,14.841525 8.9612319,14.7084802 8.96,14.5536 L8.96,1.28 C8.96,0.92653776 8.67346224,0.64 8.32,0.64 L7.04,0.64 Z" id="Shape" opacity="0.2"></path>
                <path d="M7.68,0 L1.92,0 C0.85961328,-6.49299601e-17 -7.92653432e-18,0.85961328 -7.92653432e-18,1.92 L-7.92653432e-18,14.5536 C-0.0015812005,15.0207785 0.334730838,15.4206667 0.795264,15.4992 C2.11358301,15.7792546 3.45331356,15.9467905 4.8,16 C6.14626415,15.941624 7.48557132,15.7740983 8.804736,15.499072 C9.26522128,15.4205466 9.60151852,15.0207302 9.6,14.5536 L9.6,1.92 C9.6,0.85961328 8.74038672,6.49299601e-17 7.68,0 Z M8.96,14.5536 C8.96132103,14.7085729 8.85028656,14.841733 8.6976,14.868288 C8.5312,14.896384 8.354688,14.92768 8.171008,14.959872 C7.0603458,15.1862933 5.93280511,15.3201288 4.8,15.36 C3.68881558,15.3280835 2.58260569,15.1983014 1.494208,14.97216 C1.28832,14.935296 1.090432,14.899968 0.902208,14.868096 C0.749684151,14.841445 0.638784117,14.70843 0.64,14.5536 L0.639990099,13.44 L8.96001166,13.44 L8.96,14.5536 Z M8.96,12.8 L0.64,12.8 L0.64,1.92 C0.640740782,1.21338259 1.21338259,0.640740782 1.92,0.64 L7.68,0.64 C8.38661741,0.640740782 8.95925922,1.21338259 8.96,1.92 L8.96,12.8 Z" id="Shape"></path>
                <circle id="Oval" cx="4.8" cy="2.24" r="1"></circle>
                <path d="M4.16,14.72 L5.44,14.72 C5.61673112,14.72 5.76,14.5767311 5.76,14.4 C5.76,14.2232689 5.61673112,14.08 5.44,14.08 L4.16,14.08 C3.98326888,14.08 3.84,14.2232689 3.84,14.4 C3.84,14.5767311 3.98326888,14.72 4.16,14.72 Z" id="Shape"></path>
            </g>
        </g>
    </g>
</svg>