<?xml version="1.0" encoding="UTF-8"?>
<svg width="16px" height="16px" viewBox="0 0 16 16" version="1.1" xmlns="http://www.w3.org/2000/svg" xmlns:xlink="http://www.w3.org/1999/xlink">
    <!-- Generator: Sketch 50.2 (55047) - http://www.bohemiancoding.com/sketch -->
    <title>image-caption</title>
    <desc>Created with Sketch.</desc>
    <defs></defs>
    <g id="Symbols" stroke="none" stroke-width="1" fill="none" fill-rule="evenodd">
        <g id="icon/image-caption/dark-blue" fill="#1C2233" fill-rule="nonzero">
            <g id="image-caption">
                <rect id="Rectangle-path" opacity="0.2" x="13.9130435" y="0.695652174" width="1.39130435" height="9.73913043"></rect>
                <path d="M14.9565217,0 L1.04347826,0 C0.467181131,-3.52880218e-17 0,0.467181131 0,1.04347826 L0,13.5652174 C0,14.1415145 0.467181131,14.6086957 1.04347826,14.6086957 L6.17342609,14.6086957 L7.24118261,15.6980174 C7.64781859,16.1005742 8.30279011,16.1005742 8.70942609,15.6980174 L9.77718261,14.6086957 L14.9565217,14.6086957 C15.5328189,14.6086957 16,14.1415145 16,13.5652174 L16,1.04347826 C16,0.467181131 15.5328189,1.05899737e-15 14.9565217,0 Z M15.3043478,13.5652174 C15.3043478,13.7573164 15.1486208,13.9130435 14.9565217,13.9130435 L9.48486957,13.9130435 L9.28041739,14.1217391 L8.22003478,15.2034783 C8.15505147,15.2682089 8.06702602,15.30449 7.97530435,15.3043478 C7.88707595,15.3050985 7.80199357,15.2716091 7.73794783,15.2109217 L6.6701913,14.1217391 L6.46573913,13.9130435 L1.04347826,13.9130435 C0.851379217,13.9130435 0.695652174,13.7573164 0.695652174,13.5652174 L0.695652174,11.9704348 L4.19478261,8.47074783 L7.42914783,11.7458783 C7.50253297,11.8068108 7.59768832,11.8349966 7.69242041,11.8238617 C7.78715249,11.8127268 7.8731787,11.7632448 7.93043478,11.6869565 L11.8,6.52765217 L15.3043478,11.0217739 L15.3043478,13.5652174 Z M15.3043478,9.70921739 L12.1209043,5.72897391 C12.0602211,5.63178902 11.9555147,5.57078188 11.8410435,5.56591304 C11.7255547,5.55746445 11.614115,5.61029201 11.5475478,5.70504348 L7.59373913,10.9769043 L4.39652174,7.7330087 C4.25814898,7.61815392 4.05510868,7.62743507 3.9277913,7.75443478 L0.695652174,10.9867826 L0.695652174,1.04347826 C0.695652174,0.851379217 0.851379217,0.695652174 1.04347826,0.695652174 L14.9565217,0.695652174 C15.1486208,0.695652174 15.3043478,0.851379217 15.3043478,1.04347826 L15.3043478,9.70921739 Z" id="Shape"></path>
                <path d="M4.17391304,2.7826087 C3.40551687,2.7826087 2.7826087,3.40551687 2.7826087,4.17391304 C2.7826087,4.94230922 3.40551687,5.56521739 4.17391304,5.56521739 C4.94230922,5.56521739 5.56521739,4.94230922 5.56521739,4.17391304 C5.56521739,3.80491619 5.41863396,3.45103248 5.15771378,3.1901123 C4.8967936,2.92919213 4.5429099,2.7826087 4.17391304,2.7826087 Z M4.17391304,4.86956522 C3.78971496,4.86956522 3.47826087,4.55811113 3.47826087,4.17391304 C3.47826087,3.78971496 3.78971496,3.47826087 4.17391304,3.47826087 C4.55811113,3.47826087 4.86956522,3.78971496 4.86956522,4.17391304 C4.86910524,4.55792044 4.55792044,4.86910524 4.17391304,4.86956522 Z" id="Shape"></path>
                <path d="M11.9573565,6.72925217 L9.77718261,13.9130435 L14.9565217,13.9130435 C15.1486208,13.9130435 15.3043478,13.7573164 15.3043478,13.5652174 L15.3043478,11.0217739 L11.9573565,6.72925217 Z" id="Shape" opacity="0.2"></path>
                <path d="M7.42956522,11.7459478 L4.19478261,8.47081739 L2.32584348,13.9130435 L6.46566957,13.9130435 L6.67012174,14.1217391 L7.73787826,15.2110609 C7.80196327,15.2717143 7.88707128,15.305154 7.97530435,15.3043478 C8.06702602,15.30449 8.15505147,15.2682089 8.22003478,15.2034783 L9.28041739,14.1217391 L9.48486957,13.9130435 L9.77704348,13.9130435 L7.62921739,11.8191304 C7.55662287,11.816358 7.48675455,11.7907477 7.42956522,11.7459478 Z" id="Shape" opacity="0.2"></path>
            </g>
        </g>
    </g>
</svg>