<?xml version="1.0" encoding="UTF-8"?>
<svg width="9px" height="16px" viewBox="0 0 9 16" version="1.1" xmlns="http://www.w3.org/2000/svg" xmlns:xlink="http://www.w3.org/1999/xlink">
    <!-- Generator: Sketch 50.2 (55047) - http://www.bohemiancoding.com/sketch -->
    <title>iphone</title>
    <desc>Created with Sketch.</desc>
    <defs></defs>
    <g id="Symbols" stroke="none" stroke-width="1" fill="none" fill-rule="evenodd">
        <g id="icon/link/iphone" transform="translate(-4.000000, 0.000000)" fill="#1C2233" fill-rule="nonzero">
            <g id="iphone" transform="translate(4.000000, 0.000000)">
                <rect id="Rectangle-path" opacity="0.2" x="6.4" y="0" width="1.92" height="15.36"></rect>
                <path d="M8,0 L0.96,0 C0.430040593,0.000564387495 0.000564387495,0.430040593 0,0.96 L0,15.04 C0.000564387495,15.5699594 0.430040593,15.9994356 0.96,16 L8,16 C8.52995941,15.9994356 8.95943561,15.5699594 8.96,15.04 L8.96,0.96 C8.95943561,0.430040593 8.52995941,0.000564387495 8,0 Z M8.32,15.04 C8.32,15.2167311 8.17673112,15.36 8,15.36 L0.96,15.36 C0.78326888,15.36 0.64,15.2167311 0.64,15.04 L0.64,12.8 L8.32,12.8 L8.32,15.04 Z M8.32,12.16 L0.64,12.16 L0.64,0.96 C0.64,0.78326888 0.78326888,0.64 0.96,0.64 L8,0.64 C8.17673112,0.64 8.32,0.78326888 8.32,0.96 L8.32,12.16 Z" id="Shape"></path>
                <circle id="Oval" cx="4.48" cy="14.08" r="1"></circle>
                <path d="M5.44,1.92 L3.52,1.92 C3.34326888,1.92 3.2,2.06326888 3.2,2.24 C3.2,2.41673112 3.34326888,2.56 3.52,2.56 L5.44,2.56 C5.61673112,2.56 5.76,2.41673112 5.76,2.24 C5.76,2.06326888 5.61673112,1.92 5.44,1.92 Z" id="Shape"></path>
            </g>
        </g>
    </g>
</svg>