<?xml version="1.0" encoding="UTF-8"?>
<svg width="16px" height="13px" viewBox="0 0 16 13" version="1.1" xmlns="http://www.w3.org/2000/svg" xmlns:xlink="http://www.w3.org/1999/xlink">
    <!-- Generator: Sketch 50.2 (55047) - http://www.bohemiancoding.com/sketch -->
    <title>laptop</title>
    <desc>Created with Sketch.</desc>
    <defs></defs>
    <g id="Symbols" stroke="none" stroke-width="1" fill="none" fill-rule="evenodd">
        <g id="icon/link/computer" transform="translate(0.000000, -2.000000)" fill="#1C2233" fill-rule="nonzero">
            <g id="laptop" transform="translate(0.000000, 2.000000)">
                <path d="M12.16,10.24 L12.16,10.56 C12.1594356,11.0899594 11.7299594,11.5194356 11.2,11.52 L14.4,11.52 C14.9299594,11.5194356 15.3594356,11.0899594 15.36,10.56 L15.36,10.24 L12.16,10.24 Z" id="Shape" opacity="0.2"></path>
                <path d="M15.36,9.6 L15.36,0.96 C15.3594356,0.430040593 14.9299594,0.000564387495 14.4,0 L1.6,0 C1.07004059,0.000564387495 0.640564387,0.430040593 0.64,0.96 L0.64,9.6 L0,9.6 L0,10.56 C0.00102277007,11.4432316 0.716768392,12.1589772 1.6,12.16 L14.4,12.16 C15.2832316,12.1589772 15.9989772,11.4432316 16,10.56 L16,9.6 L15.36,9.6 Z M1.28,0.96 C1.28,0.78326888 1.42326888,0.64 1.6,0.64 L14.4,0.64 C14.5767311,0.64 14.72,0.78326888 14.72,0.96 L14.72,9.6 L1.28,9.6 L1.28,0.96 Z M15.36,10.56 C15.3594356,11.0899594 14.9299594,11.5194356 14.4,11.52 L1.6,11.52 C1.07004059,11.5194356 0.640564387,11.0899594 0.64,10.56 L0.64,10.24 L6.4,10.24 L6.4,10.88 L9.6,10.88 L9.6,10.24 L15.36,10.24 L15.36,10.56 Z" id="Shape"></path>
                <rect id="Rectangle-path" opacity="0.2" x="2.56" y="1.92" width="10.88" height="6.4"></rect>
            </g>
        </g>
    </g>
</svg>