<?xml version="1.0" encoding="UTF-8"?>
<svg width="16px" height="16px" viewBox="0 0 16 16" version="1.1" xmlns="http://www.w3.org/2000/svg" xmlns:xlink="http://www.w3.org/1999/xlink">
    <!-- Generator: Sketch 50.2 (55047) - http://www.bohemiancoding.com/sketch -->
    <title>Outgoing Link</title>
    <desc>Created with Sketch.</desc>
    <defs></defs>
    <g id="Symbols" stroke="none" stroke-width="1" fill="none" fill-rule="evenodd">
        <g id="icon/link/dark-blue" fill="#1C2233" fill-rule="nonzero">
            <g id="Outgoing-Link">
                <path d="M2.73066667,12.928 L2.73066667,2.34666667 L0.682666667,2.34666667 L0.682666667,15.3173333 L13.6533333,15.3173333 L13.6533333,13.2693333 L3.072,13.2693333 C2.88348705,13.2693333 2.73066665,13.1165129 2.73066665,12.928 C2.73066665,12.928 2.73066665,12.928 2.73066665,12.928 Z" id="Shape" opacity="0.2"></path>
                <path d="M15.6013227,0.398677333 C15.5374752,0.334436352 15.4505721,0.298421589 15.36,0.298666666 L9.89866667,0.298666666 C9.71015371,0.298666674 9.55733332,0.451487061 9.55733332,0.64 C9.55733333,0.828512938 9.71015371,0.981333333 9.89866665,0.981333333 L14.5360213,0.981333333 L6.24401065,9.273344 C6.11131525,9.40724363 6.11229214,9.62336224 6.2461919,9.75605762 C6.37926343,9.88793244 6.59375798,9.88790172 6.72679265,9.75598961 L15.0186668,1.46397894 L15.0186668,6.10133361 C15.0186668,6.2898466 15.1714872,6.44266699 15.3600001,6.44266699 C15.5485131,6.44266696 15.7013335,6.2898466 15.7013335,6.10133366 L15.7013335,0.640000325 L15.7013335,0.639997218 C15.7015018,0.549440119 15.6654978,0.462565325 15.6013207,0.398675234 L15.6013227,0.398677333 Z" id="Shape"></path>
                <path d="M13.9946667,8.49066667 C13.8061537,8.49066667 13.6533333,8.64348706 13.6533333,8.832 C13.6533333,8.832 13.6533333,8.832 13.6533333,8.832 L13.6533333,14.976 C13.6533333,15.1645129 13.5005129,15.3173333 13.312,15.3173333 L1.02399999,15.3173333 C0.835487031,15.3173333 0.682666637,15.1645129 0.682666637,14.976 C0.682666637,14.976 0.682666637,14.976 0.682666637,14.976 L0.682666637,2.688 C0.682666608,2.49948711 0.835487031,2.34666672 1.02399997,2.34666672 L7.16799997,2.34666672 C7.35651289,2.34666673 7.50933329,2.19384632 7.50933329,2.00533338 C7.5093333,1.81682045 7.35651289,1.66400005 7.16799996,1.66400005 L1.02399996,1.66400005 C0.458460448,1.66400008 -5.29012008e-08,2.12246055 -5.29012008e-08,2.68800005 L-5.29012008e-08,14.9760001 L-5.29011887e-08,14.9760002 C3.2492902e-08,15.5415397 0.458460448,16.0000002 1.02399995,16.0000002 L13.3119999,16.0000002 C13.8775395,16.0000001 14.336,15.5415397 14.336,14.9760002 L14.336,8.8320002 C14.336,8.64348731 14.1831796,8.49066692 13.9946667,8.49066692 L13.9946667,8.49066667 Z" id="Shape"></path>
            </g>
        </g>
    </g>
</svg>