<?xml version="1.0" encoding="UTF-8"?>
<svg width="16px" height="16px" viewBox="0 0 16 16" version="1.1" xmlns="http://www.w3.org/2000/svg" xmlns:xlink="http://www.w3.org/1999/xlink">
    <!-- Generator: Sketch 50.2 (55047) - http://www.bohemiancoding.com/sketch -->
    <title>polaroid-stack</title>
    <desc>Created with Sketch.</desc>
    <defs></defs>
    <g id="Symbols" stroke="none" stroke-width="1" fill="none" fill-rule="evenodd">
        <g id="icon/polaroid-stack/dark-blue" fill="#1C2233" fill-rule="nonzero">
            <g id="polaroid-stack">
                <path d="M15.36,15.04 C15.36,15.2167311 15.2167311,15.36 15.04,15.36 L2.88,15.36 C2.70326888,15.36 2.56,15.2167311 2.56,15.04 L2.56,14.08 L13.12,14.08 C13.6501934,14.08 14.08,13.6501934 14.08,13.12 L14.08,2.56 L15.04,2.56 C15.2167311,2.56 15.36,2.70326888 15.36,2.88 L15.36,15.04 Z" id="Shape" opacity="0.2"></path>
                <polygon id="Shape" opacity="0.2" points="0.64 10.3808 4.1504 7.16288 7.86752 10.88 0.64 10.88"></polygon>
                <path d="M8.546304,10.65376 L6.372544,8.48 L9.893504,4.95936 L13.44,9.392512 L13.44,10.88 L8.64,10.88 C8.64011172,10.7951244 8.60639199,10.7137042 8.546304,10.65376 Z" id="Shape" opacity="0.2"></path>
                <path d="M3.2,4.48 C3.90692448,4.48 4.48,3.90692448 4.48,3.2 C4.48,2.49307552 3.90692448,1.92 3.2,1.92 C2.49307552,1.92 1.92,2.49307552 1.92,3.2 C1.92,3.90692448 2.49307552,4.48 3.2,4.48 Z M3.2,2.56 C3.55346224,2.56 3.84,2.84653776 3.84,3.2 C3.84,3.55346224 3.55346224,3.84 3.2,3.84 C2.84653776,3.84 2.56,3.55346224 2.56,3.2 C2.56042318,2.8467132 2.8467132,2.56042318 3.2,2.56 Z" id="Shape"></path>
                <path d="M15.04,1.92 L14.08,1.92 L14.08,0.96 C14.08,0.42980664 13.6501934,3.24649801e-17 13.12,0 L0.96,0 C0.42980664,-3.24649801e-17 6.49299601e-17,0.42980664 0,0.96 L0,13.12 C6.49299601e-17,13.6501934 0.42980664,14.08 0.96,14.08 L1.92,14.08 L1.92,15.04 C1.92,15.5701934 2.34980664,16 2.88,16 L15.04,16 C15.5701934,16 16,15.5701934 16,15.04 L16,2.88 C16,2.34980664 15.5701934,1.92 15.04,1.92 Z M0.64,10.3808 L4.150336,7.163328 L7.86752,10.88 L0.64,10.88 L0.64,10.3808 Z M8.54624,10.653952 L6.372544,8.48 L9.893504,4.95936 L13.44,9.392512 L13.44,10.88 L8.64,10.88 C8.64011172,10.7951244 8.60639199,10.7137042 8.546304,10.65376 L8.54624,10.653952 Z M0.96,0.64 L13.12,0.64 C13.2967311,0.64 13.44,0.78326888 13.44,0.96 L13.44,8.367488 L10.170048,4.28 C10.113175,4.20896908 10.0287174,4.16555302 9.937856,4.16064 C9.84728849,4.15753542 9.75930052,4.19111068 9.693824,4.25376 L5.92,8.02752 L4.386304,6.49376 C4.26494851,6.37302319 4.07015214,6.36890975 3.943808,6.484416 L0.64,9.512832 L0.64,0.96 C0.64,0.78326888 0.78326888,0.64 0.96,0.64 Z M0.64,13.12 L0.64,11.52 L13.44,11.52 L13.44,13.12 C13.44,13.2967311 13.2967311,13.44 13.12,13.44 L0.96,13.44 C0.78326888,13.44 0.64,13.2967311 0.64,13.12 Z M15.36,15.04 C15.36,15.2167311 15.2167311,15.36 15.04,15.36 L2.88,15.36 C2.70326888,15.36 2.56,15.2167311 2.56,15.04 L2.56,14.08 L13.12,14.08 C13.6501934,14.08 14.08,13.6501934 14.08,13.12 L14.08,2.56 L15.04,2.56 C15.2167311,2.56 15.36,2.70326888 15.36,2.88 L15.36,15.04 Z" id="Shape"></path>
            </g>
        </g>
    </g>
</svg>