<?xml version="1.0" encoding="UTF-8"?>
<svg width="16px" height="16px" viewBox="0 0 16 16" version="1.1" xmlns="http://www.w3.org/2000/svg" xmlns:xlink="http://www.w3.org/1999/xlink">
    <!-- Generator: Sketch 50.2 (55047) - http://www.bohemiancoding.com/sketch -->
    <title>wall-clock</title>
    <desc>Created with Sketch.</desc>
    <defs></defs>
    <g id="Symbols" stroke="none" stroke-width="1" fill="none" fill-rule="evenodd">
        <g id="icon/wall-clock/dark-blue" fill="#1C2233" fill-rule="nonzero">
            <g id="wall-clock">
                <circle id="Oval" opacity="0.2" cx="8" cy="8" r="5.44"></circle>
                <path d="M8,0 C3.581722,-2.705415e-16 5.41083001e-16,3.581722 0,8 C-5.41083001e-16,12.418278 3.581722,16 8,16 C12.418278,16 16,12.418278 16,8 C16,5.87826808 15.1571453,3.84343678 13.6568542,2.34314575 C12.1565632,0.842854723 10.1217319,1.2991861e-16 8,0 Z M8,15.36 C3.93518424,15.36 0.64,12.0648158 0.64,8 C0.64,3.93518424 3.93518424,0.64 8,0.64 C12.0648158,0.64 15.36,3.93518424 15.36,8 C15.3553797,12.0629004 12.0629004,15.3553797 8,15.36 Z" id="Shape"></path>
                <path d="M8.32,7.867648 L8.32,4.16 C8.32,3.98326888 8.17673112,3.84 8,3.84 C7.82326888,3.84 7.68,3.98326888 7.68,4.16 L7.68,8.001024 C7.68026205,8.08393835 7.71294845,8.1634607 7.771072,8.222592 L7.773504,8.22624 L10.333504,10.78624 C10.4586117,10.9102923 10.6604611,10.9098791 10.7850599,10.7853156 C10.9096586,10.660752 10.9101289,10.4589028 10.786112,10.33376 L8.32,7.867648 Z" id="Shape"></path>
            </g>
        </g>
    </g>
</svg>