<?xml version="1.0" encoding="UTF-8"?>
<svg width="15px" height="16px" viewBox="0 0 15 16" version="1.1" xmlns="http://www.w3.org/2000/svg" xmlns:xlink="http://www.w3.org/1999/xlink">
    <!-- Generator: Sketch 50.2 (55047) - http://www.bohemiancoding.com/sketch -->
    <title>work-desk</title>
    <desc>Created with Sketch.</desc>
    <defs></defs>
    <g id="Symbols" stroke="none" stroke-width="1" fill="none" fill-rule="evenodd">
        <g id="icon/link/desk" transform="translate(-1.000000, 0.000000)" fill="#1C2233" fill-rule="nonzero">
            <g id="work-desk" transform="translate(1.000000, 0.000000)">
                <rect id="Rectangle-path" opacity="0.2" x="11.52" y="0.64" width="1.92" height="3.2"></rect>
                <rect id="Rectangle-path" opacity="0.2" x="3.2" y="12.16" width="1.92" height="1.92"></rect>
                <rect id="Rectangle-path" opacity="0.2" x="3.2" y="9.6" width="1.92" height="1.92"></rect>
                <path d="M13.76,7.68 L11.84,7.68 C12.0167311,7.68 12.16,7.82326888 12.16,8 L12.16,8.96 L14.08,8.96 L14.08,8 C14.08,7.82326888 13.9367311,7.68 13.76,7.68 Z" id="Shape" opacity="0.2"></path>
                <rect id="Rectangle-path" opacity="0.2" x="1.92" y="5.12" width="1.92" height="1.92"></rect>
                <rect id="Rectangle-path" x="2.56" y="5.76" width="1" height="1"></rect>
                <path d="M13.76,7.04 L11.7504,7.04 L11.323776,5.76 L13.44,5.76 C13.7934622,5.76 14.08,5.47346224 14.08,5.12 L14.08,0.64 C14.08,0.28653776 13.7934622,2.164332e-17 13.44,0 L6.4,0 C6.04653776,-2.164332e-17 5.76,0.28653776 5.76,0.64 L5.76,5.12 C5.76,5.47346224 6.04653776,5.76 6.4,5.76 L8.51616,5.76 L8.0896,7.04 L4.48,7.04 L4.48,5.12 C4.48,4.76653776 4.19346224,4.48 3.84,4.48 L1.92,4.48 C1.56653776,4.48 1.28,4.76653776 1.28,5.12 L1.28,7.04 L0.96,7.04 C0.42980664,7.04 6.49299601e-17,7.46980664 0,8 L0,15.68 C2.164332e-17,15.8567311 0.14326888,16 0.32,16 C0.49673112,16 0.64,15.8567311 0.64,15.68 L0.64,14.72 L5.12,14.72 C5.47346224,14.72 5.76,14.4334622 5.76,14.08 L5.76,9.6 L14.08,9.6 L14.08,15.68 C14.08,15.8567311 14.2232689,16 14.4,16 C14.5767311,16 14.72,15.8567311 14.72,15.68 L14.72,8 C14.72,7.46980664 14.2901934,7.04 13.76,7.04 Z M6.4,0.64 L13.44,0.64 L13.44,3.84 L6.4,3.84 L6.4,0.64 Z M6.4,4.48 L13.44,4.48 L13.44,5.12 L6.4,5.12 L6.4,4.48 Z M9.1904,5.76 L10.6496,5.76 L11.076224,7.04 L8.76384,7.04 L9.1904,5.76 Z M1.92,5.12 L3.84,5.12 L3.84,7.04 L1.92,7.04 L1.92,5.12 Z M5.12,14.08 L0.64,14.08 L0.64,12.16 L5.12,12.16 L5.12,14.08 Z M5.12,11.52 L0.64,11.52 L0.64,9.6 L5.12,9.6 L5.12,11.52 Z M0.64,8.96 L0.64,8 C0.64,7.82326888 0.78326888,7.68 0.96,7.68 L13.76,7.68 C13.9367311,7.68 14.08,7.82326888 14.08,8 L14.08,8.96 L0.64,8.96 Z" id="Shape"></path>
                <rect id="Rectangle-path" opacity="0.2" x="11.52" y="4.48" width="1.92" height="1"></rect>
            </g>
        </g>
    </g>
</svg>