<?xml version="1.0" encoding="UTF-8" standalone="no"?>
<svg width="15px" height="12px" viewBox="0 0 15 12" version="1.1" xmlns="http://www.w3.org/2000/svg" xmlns:xlink="http://www.w3.org/1999/xlink" xmlns:sketch="http://www.bohemiancoding.com/sketch/ns">
    <!-- Generator: Sketch 3.3.3 (12081) - http://www.bohemiancoding.com/sketch -->
    <title>Shape</title>
    <desc>Created with Sketch.</desc>
    <defs></defs>
    <g id="Page-1" stroke="none" stroke-width="1" fill="none" fill-rule="evenodd" sketch:type="MSPage">
        <g id="Desktop" sketch:type="MSArtboardGroup" transform="translate(-632.000000, -725.000000)" fill-opacity="0.502009737" fill="#000000">
            <g id="card-front" sketch:type="MSLayerGroup" transform="translate(342.500000, 249.500000)">
                <g id="nightowl" sketch:type="MSShapeGroup">
                    <path d="M303.967,481.47775 C303.967,481.46675 303.961,481.45875 303.959,481.44975 C303.951,481.35175 303.912,481.26875 303.855,481.19675 C303.839,481.17575 303.845,481.14675 303.826,481.12875 C303.81,481.11275 303.787,481.11875 303.769,481.10575 C303.761,481.09975 303.757,481.08975 303.749,481.08475 L298.314,476.14175 C298.125,475.95275 297.815,475.95275 297.625,476.14175 C297.435,476.33275 297.435,476.64075 297.625,476.83075 L302.197,480.98475 L290.499,480.98475 C290.223,480.98475 290,481.20875 290,481.48375 C290,481.75875 290.223,481.98175 290.499,481.98175 L302.197,481.98175 L297.625,486.13675 C297.435,486.32675 297.435,486.63475 297.625,486.82475 C297.815,487.01475 298.125,487.01475 298.314,486.82475 L303.777,481.85875 C303.785,481.85275 303.795,481.85475 303.802,481.84875 C303.808,481.84275 303.82,481.84475 303.825,481.83875 C303.833,481.83175 303.829,481.82075 303.835,481.81475 C303.909,481.73175 303.956,481.62675 303.962,481.50675 C303.962,481.50075 303.966,481.49575 303.966,481.48975 C303.966,481.48675 303.968,481.48475 303.968,481.48175 C303.968,481.47875 303.967,481.47975 303.967,481.47775 L303.967,481.47775 Z" id="Shape"></path>
                </g>
            </g>
        </g>
    </g>
</svg>