<?xml version="1.0" encoding="UTF-8" standalone="no"?>
<svg width="16px" height="16px" viewBox="0 0 16 16" version="1.1" xmlns="http://www.w3.org/2000/svg" xmlns:xlink="http://www.w3.org/1999/xlink">
    <!-- Generator: Sketch 39.1 (31720) - http://www.bohemiancoding.com/sketch -->
    <title>Fill 36</title>
    <desc>Created with Sketch.</desc>
    <defs></defs>
    <g id="Symbols" stroke="none" stroke-width="1" fill="none" fill-rule="evenodd">
        <g id="projects/icons" transform="translate(-51.000000, -8.000000)" fill="#0073FF">
            <g id="btn-group">
                <g id="dribbble" transform="translate(43.000000, 0.000000)">
                    <path d="M19.745759,21.6 C19.66094,21.1140316 19.2968125,19.2501415 18.4,16.8782186 C20.1039438,16.6630907 21.6025932,16.9383441 22.4,17.1429914 C22.1466234,18.9743365 21.1585089,20.5684893 19.745759,21.6 L19.745759,21.6 Z M15.9123711,22.4 C14.4273196,22.4 13.0659794,21.8465116 12,20.9294574 C13.3680412,18.4821705 15.1896907,17.3100775 16.9386598,16.8 C17.5556701,18.351938 18.0891753,20.055814 18.4,21.8465116 C17.6381443,22.1992248 16.7979381,22.4 15.9123711,22.4 L15.9123711,22.4 Z M9.6,15.8915385 C9.6,15.7671538 9.60716857,15.6438462 9.61378571,15.52 C10.8726966,15.6223077 13.1434786,15.5415385 16.161446,14.4 C16.3770545,14.8038462 16.5904572,15.2292308 16.8,15.6707692 C13.6066784,16.5430769 11.8387991,18.8153846 11.1081565,20 C10.1657655,18.8794615 9.6,17.4530769 9.6,15.8915385 L9.6,15.8915385 Z M13.0658084,10.4 C13.5497917,11.019957 14.3528966,12.1143812 15.2,13.5297831 C13.3616055,14.1497401 11.2157516,14.4097221 9.6,14.3997228 C10.0585384,12.6248458 11.3514578,11.1599473 13.0658084,10.4 L13.0658084,10.4 Z M15.9564674,9.6 C17.4833919,9.6 18.8850332,10.0780807 20,10.8762112 C19.4862837,11.2800125 18.3713169,12.0626889 16.657288,12.8 C16.0275889,11.7885029 15.2862837,10.7615516 14.4,9.77398349 C14.9000391,9.6648076 15.4197733,9.6 15.9564674,9.6 L15.9564674,9.6 Z M22.4,16 C20.8276202,15.5597315 19.453021,15.4845638 18.2614057,15.6510067 C18.0621455,15.1516779 17.844143,14.6416107 17.6,14.1208054 C18.6564735,13.5892617 19.798767,12.8966443 21.0145499,12 C21.8549938,13.0840268 22.3689273,14.4751678 22.4,16 L22.4,16 Z M16,8 C11.5818667,8 8,11.5786667 8,16 C8,20.416 11.5818667,24 16,24 C20.4181333,24 24,20.416 24,16 C24,11.5786667 20.4181333,8 16,8 L16,8 Z" id="Fill-36"></path>
                </g>
            </g>
        </g>
    </g>
</svg>