<?xml version="1.0" encoding="UTF-8" standalone="no"?>
<svg width="20px" height="20px" viewBox="0 0 20 20" version="1.1" xmlns="http://www.w3.org/2000/svg" xmlns:xlink="http://www.w3.org/1999/xlink">
    <!-- Generator: Sketch 39.1 (31720) - http://www.bohemiancoding.com/sketch -->
    <title>Fill 36</title>
    <desc>Created with Sketch.</desc>
    <defs></defs>
    <g id="site" stroke="none" stroke-width="1" fill="none" fill-rule="evenodd">
        <g id="Cover" transform="translate(-348.000000, -954.000000)" fill="#FFFFFF">
            <g id="greeting">
                <g id="social" transform="translate(298.000000, 954.000000)">
                    <path d="M64.6821988,17 C64.576175,16.3925395 64.1210157,14.0626769 63,11.0977732 C65.1299298,10.8288634 67.0032415,11.1729301 68,11.4287392 C67.6832793,13.7179206 66.4481361,15.7106117 64.6821988,17 L64.6821988,17 Z M59.8904639,18 C58.0341495,18 56.3324742,17.3081395 55,16.1618217 C56.7100515,13.1027132 58.9871134,11.6375969 61.1733247,11 C61.9445876,12.9399225 62.6114691,15.0697674 63,17.3081395 C62.0476804,17.749031 60.9974227,18 59.8904639,18 L59.8904639,18 Z M52,9.86442308 C52,9.70894231 52.0089607,9.55480769 52.0172321,9.4 C53.5908708,9.52788462 56.4293482,9.42692308 60.2018075,8 C60.4713181,8.50480769 60.7380715,9.03653846 61,9.58846154 C57.008348,10.6788462 54.7984989,13.5192308 53.8851957,15 C52.7072069,13.5993269 52,11.8163462 52,9.86442308 L52,9.86442308 Z M56.3322605,3 C56.9372397,3.77494629 57.9411208,5.14297649 59,6.91222887 C56.7020068,7.68717517 54.0196895,8.01215265 52,7.99965351 C52.573173,5.78105727 54.1893222,3.94993417 56.3322605,3 L56.3322605,3 Z M59.9455842,2 C61.8542399,2 63.6062915,2.59760087 65,3.59526406 C64.3578546,4.10001558 62.9641462,5.07836112 60.82161,6 C60.0344861,4.7356286 59.1078546,3.45193955 58,2.21747936 C58.6250488,2.0810095 59.2747167,2 59.9455842,2 L59.9455842,2 Z M68,10 C66.0345253,9.44966443 64.3162762,9.3557047 62.8267571,9.56375839 C62.5776819,8.93959732 62.3051788,8.30201342 62,7.65100671 C63.3205919,6.98657718 64.7484587,6.12080537 66.2681874,5 C67.3187423,6.35503356 67.9611591,8.09395973 68,10 L68,10 Z M60,0 C54.4773333,0 50,4.47333333 50,10 C50,15.52 54.4773333,20 60,20 C65.5226667,20 70,15.52 70,10 C70,4.47333333 65.5226667,0 60,0 L60,0 Z" id="Fill-36"></path>
                </g>
            </g>
        </g>
    </g>
</svg>