<?xml version="1.0" encoding="UTF-8" standalone="no"?>
<svg width="2000px" height="800px" viewBox="0 0 2000 800" version="1.1" xmlns="http://www.w3.org/2000/svg" xmlns:xlink="http://www.w3.org/1999/xlink">
    <!-- Generator: Sketch 39.1 (31720) - http://www.bohemiancoding.com/sketch -->
    <title>Pattern - Large</title>
    <desc>Created with Sketch.</desc>
    <defs>
        <rect id="path-1" x="30.5254972" y="-2.06057393e-13" width="7.0443455" height="66.4740223" rx="3.52217275"></rect>
        <mask id="mask-2" maskContentUnits="userSpaceOnUse" maskUnits="objectBoundingBox" x="0" y="0" width="7.0443455" height="66.4740223" fill="white">
            <use xlink:href="#path-1"></use>
        </mask>
        <rect id="path-3" x="30.5254972" y="-1.56319402e-13" width="7.0443455" height="66.4740223" rx="3.52217275"></rect>
        <mask id="mask-4" maskContentUnits="userSpaceOnUse" maskUnits="objectBoundingBox" x="-4" y="-4" width="15.0443455" height="74.4740223">
            <rect x="26.5254972" y="-4" width="15.0443455" height="74.4740223" fill="white"></rect>
            <use xlink:href="#path-3" fill="black"></use>
        </mask>
        <rect id="path-5" x="30.5254972" y="-2.06057393e-13" width="7.0443455" height="66.4740223" rx="3.52217275"></rect>
        <mask id="mask-6" maskContentUnits="userSpaceOnUse" maskUnits="objectBoundingBox" x="0" y="0" width="7.0443455" height="66.4740223" fill="white">
            <use xlink:href="#path-5"></use>
        </mask>
        <rect id="path-7" x="30.5254972" y="-1.56319402e-13" width="7.0443455" height="66.4740223" rx="3.52217275"></rect>
        <mask id="mask-8" maskContentUnits="userSpaceOnUse" maskUnits="objectBoundingBox" x="-4" y="-4" width="15.0443455" height="74.4740223">
            <rect x="26.5254972" y="-4" width="15.0443455" height="74.4740223" fill="white"></rect>
            <use xlink:href="#path-7" fill="black"></use>
        </mask>
        <rect id="path-9" x="8.94872229" y="5.75539616e-13" width="2.06508976" height="19.4872359" rx="1.03254488"></rect>
        <mask id="mask-10" maskContentUnits="userSpaceOnUse" maskUnits="objectBoundingBox" x="0" y="0" width="2.06508976" height="19.4872359" fill="white">
            <use xlink:href="#path-9"></use>
        </mask>
        <rect id="path-11" x="8.94872229" y="5.5067062e-13" width="2.06508976" height="19.4872359" rx="1.03254488"></rect>
        <mask id="mask-12" maskContentUnits="userSpaceOnUse" maskUnits="objectBoundingBox" x="0" y="0" width="2.06508976" height="19.4872359" fill="white">
            <use xlink:href="#path-11"></use>
        </mask>
        <rect id="path-13" x="8.99055873" y="1.49213975e-13" width="2.07474432" height="19.5783413" rx="1.03737216"></rect>
        <mask id="mask-14" maskContentUnits="userSpaceOnUse" maskUnits="objectBoundingBox" x="0" y="0" width="2.07474432" height="19.5783413" fill="white">
            <use xlink:href="#path-13"></use>
        </mask>
        <rect id="path-15" x="8.99055873" y="1.10134124e-13" width="2.07474432" height="19.5783413" rx="1.03737216"></rect>
        <mask id="mask-16" maskContentUnits="userSpaceOnUse" maskUnits="objectBoundingBox" x="0" y="0" width="2.07474432" height="19.5783413" fill="white">
            <use xlink:href="#path-15"></use>
        </mask>
        <rect id="path-17" x="8.99055873" y="1.20792265e-13" width="2.07474432" height="19.5783413" rx="1.03737216"></rect>
        <mask id="mask-18" maskContentUnits="userSpaceOnUse" maskUnits="objectBoundingBox" x="0" y="0" width="2.07474432" height="19.5783413" fill="white">
            <use xlink:href="#path-17"></use>
        </mask>
        <rect id="path-19" x="8.99055873" y="8.17124146e-14" width="2.07474432" height="19.5783413" rx="1.03737216"></rect>
        <mask id="mask-20" maskContentUnits="userSpaceOnUse" maskUnits="objectBoundingBox" x="0" y="0" width="2.07474432" height="19.5783413" fill="white">
            <use xlink:href="#path-19"></use>
        </mask>
        <rect id="path-21" x="8.99055873" y="1.49213975e-13" width="2.07474432" height="19.5783413" rx="1.03737216"></rect>
        <mask id="mask-22" maskContentUnits="userSpaceOnUse" maskUnits="objectBoundingBox" x="0" y="0" width="2.07474432" height="19.5783413" fill="white">
            <use xlink:href="#path-21"></use>
        </mask>
        <rect id="path-23" x="8.99055873" y="1.10134124e-13" width="2.07474432" height="19.5783413" rx="1.03737216"></rect>
        <mask id="mask-24" maskContentUnits="userSpaceOnUse" maskUnits="objectBoundingBox" x="0" y="0" width="2.07474432" height="19.5783413" fill="white">
            <use xlink:href="#path-23"></use>
        </mask>
        <rect id="path-25" x="12.1701001" y="-2.7533531e-13" width="2.80848465" height="26.5022877" rx="1.40424232"></rect>
        <mask id="mask-26" maskContentUnits="userSpaceOnUse" maskUnits="objectBoundingBox" x="0" y="0" width="2.80848465" height="26.5022877" fill="white">
            <use xlink:href="#path-25"></use>
        </mask>
        <rect id="path-27" x="12.1701001" y="-3.26849658e-13" width="2.80848465" height="26.5022877" rx="1.40424232"></rect>
        <mask id="mask-28" maskContentUnits="userSpaceOnUse" maskUnits="objectBoundingBox" x="0" y="0" width="2.80848465" height="26.5022877" fill="white">
            <use xlink:href="#path-27"></use>
        </mask>
        <rect id="path-29" x="18.8275862" y="-1.3500312e-13" width="4.34482759" height="41" rx="2.17241379"></rect>
        <mask id="mask-30" maskContentUnits="userSpaceOnUse" maskUnits="objectBoundingBox" x="0" y="0" width="4.34482759" height="41" fill="white">
            <use xlink:href="#path-29"></use>
        </mask>
        <rect id="path-31" x="18.8275862" y="-4.26325641e-14" width="4.34482759" height="41" rx="2.17241379"></rect>
        <mask id="mask-32" maskContentUnits="userSpaceOnUse" maskUnits="objectBoundingBox" x="0" y="0" width="4.34482759" height="41" fill="white">
            <use xlink:href="#path-31"></use>
        </mask>
        <rect id="path-33" x="30.5254972" y="-2.06057393e-13" width="7.0443455" height="66.4740223" rx="3.52217275"></rect>
        <mask id="mask-34" maskContentUnits="userSpaceOnUse" maskUnits="objectBoundingBox" x="0" y="0" width="7.0443455" height="66.4740223" fill="white">
            <use xlink:href="#path-33"></use>
        </mask>
        <rect id="path-35" x="30.5254972" y="-1.56319402e-13" width="7.0443455" height="66.4740223" rx="3.52217275"></rect>
        <mask id="mask-36" maskContentUnits="userSpaceOnUse" maskUnits="objectBoundingBox" x="-4" y="-4" width="15.0443455" height="74.4740223">
            <rect x="26.5254972" y="-4" width="15.0443455" height="74.4740223" fill="white"></rect>
            <use xlink:href="#path-35" fill="black"></use>
        </mask>
    </defs>
    <g id="site" stroke="none" stroke-width="1" fill="none" fill-rule="evenodd">
        <g id="Pattern---Large">
            <g id="Group-3" transform="translate(28.000000, -17.000000)">
                <g id="foreground" transform="translate(0.000000, 36.000000)">
                    <g id="Group" transform="translate(1736.928674, 66.259668) rotate(-510.000000) translate(-1736.928674, -66.259668) translate(1702.928674, 32.759668)">
                        <use id="Rectangle-6" stroke="#FFFFFF" mask="url(#mask-2)" stroke-width="2" fill="#FFFFFF" xlink:href="#path-1"></use>
                        <g id="Rectangle-6" transform="translate(34.047670, 33.237011) rotate(-270.000000) translate(-34.047670, -33.237011) ">
                            <use fill="#FFFDFD" fill-rule="evenodd" xlink:href="#path-3"></use>
                            <use stroke="#5953FF" mask="url(#mask-4)" stroke-width="8" xlink:href="#path-3"></use>
                        </g>
                    </g>
                    <g id="Group" transform="translate(42.054563, 453.849139) rotate(-615.000000) translate(-42.054563, -453.849139) translate(8.054563, 420.349139)">
                        <use id="Rectangle-6" stroke="#FFFFFF" mask="url(#mask-6)" stroke-width="2" fill="#FFFFFF" xlink:href="#path-5"></use>
                        <g id="Rectangle-6" transform="translate(34.047670, 33.237011) rotate(-270.000000) translate(-34.047670, -33.237011) ">
                            <use fill="#FFFDFD" fill-rule="evenodd" xlink:href="#path-7"></use>
                            <use stroke="#5953FF" mask="url(#mask-8)" stroke-width="8" xlink:href="#path-7"></use>
                        </g>
                    </g>
                    <g id="Group" transform="translate(1098.247449, 218.247449) rotate(-285.000000) translate(-1098.247449, -218.247449) translate(1088.247449, 208.247449)" stroke="#FFFFFF" stroke-width="2">
                        <use id="Rectangle-6" mask="url(#mask-10)" fill="#FFFFFF" xlink:href="#path-9"></use>
                        <use id="Rectangle-6" mask="url(#mask-12)" transform="translate(9.981267, 9.743618) rotate(-270.000000) translate(-9.981267, -9.743618) " xlink:href="#path-11"></use>
                    </g>
                    <g id="Group" transform="translate(1277.247449, 649.247449) rotate(-285.000000) translate(-1277.247449, -649.247449) translate(1267.247449, 639.247449)" stroke="#FFFFFF" stroke-width="2">
                        <use id="Rectangle-6" mask="url(#mask-14)" fill="#FFFFFF" xlink:href="#path-13"></use>
                        <use id="Rectangle-6" mask="url(#mask-16)" transform="translate(10.027931, 9.789171) rotate(-270.000000) translate(-10.027931, -9.789171) " xlink:href="#path-15"></use>
                    </g>
                    <g id="Group" transform="translate(761.247449, 554.247449) rotate(-285.000000) translate(-761.247449, -554.247449) translate(751.247449, 544.247449)" stroke="#FFFFFF" stroke-width="2">
                        <use id="Rectangle-6" mask="url(#mask-18)" fill="#FFFFFF" xlink:href="#path-17"></use>
                        <use id="Rectangle-6" mask="url(#mask-20)" transform="translate(10.027931, 9.789171) rotate(-270.000000) translate(-10.027931, -9.789171) " xlink:href="#path-19"></use>
                    </g>
                    <g id="Group" transform="translate(1085.247449, 506.247449) rotate(-285.000000) translate(-1085.247449, -506.247449) translate(1075.247449, 496.247449)" stroke="#FFFFFF" stroke-width="2">
                        <use id="Rectangle-6" mask="url(#mask-22)" fill="#FFFFFF" xlink:href="#path-21"></use>
                        <use id="Rectangle-6" mask="url(#mask-24)" transform="translate(10.027931, 9.789171) rotate(-270.000000) translate(-10.027931, -9.789171) " xlink:href="#path-23"></use>
                    </g>
                    <g id="Group" transform="translate(955.534056, 37.534056) rotate(-285.000000) translate(-955.534056, -37.534056) translate(942.034056, 24.034056)" stroke="#FFFFFF" stroke-width="2">
                        <use id="Rectangle-6" mask="url(#mask-26)" fill="#FFFFFF" xlink:href="#path-25"></use>
                        <use id="Rectangle-6" mask="url(#mask-28)" transform="translate(13.574342, 13.251144) rotate(-270.000000) translate(-13.574342, -13.251144) " xlink:href="#path-27"></use>
                    </g>
                    <g id="Group" opacity="0.917269123" transform="translate(601.236679, 25.590233) rotate(-285.000000) translate(-601.236679, -25.590233) translate(580.236679, 5.090233)" stroke="#FFFFFF" stroke-width="2">
                        <use id="Rectangle-6" mask="url(#mask-30)" fill="#FFFFFF" xlink:href="#path-29"></use>
                        <use id="Rectangle-6" mask="url(#mask-32)" transform="translate(21.000000, 20.500000) rotate(-270.000000) translate(-21.000000, -20.500000) " xlink:href="#path-31"></use>
                    </g>
                    <g id="Group" transform="translate(720.158363, 671.511916) rotate(-285.000000) translate(-720.158363, -671.511916) translate(686.158363, 638.011916)">
                        <use id="Rectangle-6" stroke="#FFFFFF" mask="url(#mask-34)" stroke-width="2" fill="#FFFFFF" xlink:href="#path-33"></use>
                        <g id="Rectangle-6" transform="translate(34.047670, 33.237011) rotate(-270.000000) translate(-34.047670, -33.237011) ">
                            <use fill="#FFFDFD" fill-rule="evenodd" xlink:href="#path-35"></use>
                            <use stroke="#5953FF" mask="url(#mask-36)" stroke-width="8" xlink:href="#path-35"></use>
                        </g>
                    </g>
                    <circle id="Oval" stroke="#FFFFFF" stroke-width="3" opacity="0.583838619" cx="809.5" cy="464.5" r="5.5"></circle>
                    <circle id="Oval" stroke="#FFFFFF" stroke-width="3" cx="1097.5" cy="718.5" r="5.5"></circle>
                    <circle id="Oval" stroke="#FFFFFF" stroke-width="3" cx="1254.5" cy="571.5" r="5.5"></circle>
                    <path d="M268,258 C271.865993,258 275,254.865993 275,251 C275,247.134007 271.865993,244 268,244 C264.134007,244 261,247.134007 261,251 C261,254.865993 264.134007,258 268,258 Z" id="Oval" stroke="#FFFFFF" stroke-width="3" fill="#FFFFFF"></path>
                    <path d="M808,158 C811.865993,158 815,154.865993 815,151 C815,147.134007 811.865993,144 808,144 C804.134007,144 801,147.134007 801,151 C801,154.865993 804.134007,158 808,158 Z" id="Oval" stroke="#FFFFFF" stroke-width="3" fill="#FFFFFF"></path>
                    <circle id="Oval" stroke="#FFFFFF" stroke-width="3" cx="29.5" cy="78.5" r="5.5"></circle>
                    <circle id="Oval" stroke="#FFFFFF" stroke-width="3" cx="809.5" cy="228.5" r="5.5"></circle>
                </g>
            </g>
        </g>
    </g>
</svg>