<?xml version="1.0" encoding="UTF-8" standalone="no"?>
<svg width="2000px" height="800px" viewBox="0 0 2000 800" version="1.1" xmlns="http://www.w3.org/2000/svg" xmlns:xlink="http://www.w3.org/1999/xlink">
    <!-- Generator: Sketch 39.1 (31720) - http://www.bohemiancoding.com/sketch -->
    <title>Artboard 3</title>
    <desc>Created with Sketch.</desc>
    <defs>
        <rect id="path-1" x="0" y="36" width="130" height="130"></rect>
        <mask id="mask-2" maskContentUnits="userSpaceOnUse" maskUnits="objectBoundingBox" x="0" y="0" width="130" height="130" fill="white">
            <use xlink:href="#path-1"></use>
        </mask>
        <rect id="path-3" x="90" y="0" width="77" height="77"></rect>
        <mask id="mask-4" maskContentUnits="userSpaceOnUse" maskUnits="objectBoundingBox" x="0" y="0" width="77" height="77" fill="white">
            <use xlink:href="#path-3"></use>
        </mask>
        <circle id="path-5" cx="964" cy="187" r="62"></circle>
        <mask id="mask-6" maskContentUnits="userSpaceOnUse" maskUnits="objectBoundingBox" x="-5" y="-5" width="134" height="134">
            <rect x="897" y="120" width="134" height="134" fill="white"></rect>
            <use xlink:href="#path-5" fill="black"></use>
        </mask>
        <polygon id="path-7" points="1318 0 1422 208 1214 208"></polygon>
        <mask id="mask-8" maskContentUnits="userSpaceOnUse" maskUnits="objectBoundingBox" x="0" y="0" width="208" height="208" fill="white">
            <use xlink:href="#path-7"></use>
        </mask>
        <polygon id="path-9" points="1259 37 1318 155 1200 155"></polygon>
        <mask id="mask-10" maskContentUnits="userSpaceOnUse" maskUnits="objectBoundingBox" x="0" y="0" width="118" height="118" fill="white">
            <use xlink:href="#path-9"></use>
        </mask>
        <rect id="path-11" x="18.8275862" y="-1.3500312e-13" width="4.34482759" height="41" rx="2.17241379"></rect>
        <mask id="mask-12" maskContentUnits="userSpaceOnUse" maskUnits="objectBoundingBox" x="0" y="0" width="4.34482759" height="41" fill="white">
            <use xlink:href="#path-11"></use>
        </mask>
        <rect id="path-13" x="18.8275862" y="-4.26325641e-14" width="4.34482759" height="41" rx="2.17241379"></rect>
        <mask id="mask-14" maskContentUnits="userSpaceOnUse" maskUnits="objectBoundingBox" x="0" y="0" width="4.34482759" height="41" fill="white">
            <use xlink:href="#path-13"></use>
        </mask>
        <rect id="path-15" x="12.1701001" y="-2.7533531e-13" width="2.80848465" height="26.5022877" rx="1.40424232"></rect>
        <mask id="mask-16" maskContentUnits="userSpaceOnUse" maskUnits="objectBoundingBox" x="0" y="0" width="2.80848465" height="26.5022877" fill="white">
            <use xlink:href="#path-15"></use>
        </mask>
        <rect id="path-17" x="12.1701001" y="-3.26849658e-13" width="2.80848465" height="26.5022877" rx="1.40424232"></rect>
        <mask id="mask-18" maskContentUnits="userSpaceOnUse" maskUnits="objectBoundingBox" x="0" y="0" width="2.80848465" height="26.5022877" fill="white">
            <use xlink:href="#path-17"></use>
        </mask>
        <rect id="path-19" x="30.5254972" y="-2.06057393e-13" width="7.0443455" height="66.4740223" rx="3.52217275"></rect>
        <mask id="mask-20" maskContentUnits="userSpaceOnUse" maskUnits="objectBoundingBox" x="0" y="0" width="7.0443455" height="66.4740223" fill="white">
            <use xlink:href="#path-19"></use>
        </mask>
        <rect id="path-21" x="30.5254972" y="-1.56319402e-13" width="7.0443455" height="66.4740223" rx="3.52217275"></rect>
        <mask id="mask-22" maskContentUnits="userSpaceOnUse" maskUnits="objectBoundingBox" x="-4" y="-4" width="15.0443455" height="74.4740223">
            <rect x="26.5254972" y="-4" width="15.0443455" height="74.4740223" fill="white"></rect>
            <use xlink:href="#path-21" fill="black"></use>
        </mask>
        <rect id="path-23" x="8.99055873" y="1.49213975e-13" width="2.07474432" height="19.5783413" rx="1.03737216"></rect>
        <mask id="mask-24" maskContentUnits="userSpaceOnUse" maskUnits="objectBoundingBox" x="0" y="0" width="2.07474432" height="19.5783413" fill="white">
            <use xlink:href="#path-23"></use>
        </mask>
        <rect id="path-25" x="8.99055873" y="1.10134124e-13" width="2.07474432" height="19.5783413" rx="1.03737216"></rect>
        <mask id="mask-26" maskContentUnits="userSpaceOnUse" maskUnits="objectBoundingBox" x="0" y="0" width="2.07474432" height="19.5783413" fill="white">
            <use xlink:href="#path-25"></use>
        </mask>
        <rect id="path-27" x="8.99055873" y="1.20792265e-13" width="2.07474432" height="19.5783413" rx="1.03737216"></rect>
        <mask id="mask-28" maskContentUnits="userSpaceOnUse" maskUnits="objectBoundingBox" x="0" y="0" width="2.07474432" height="19.5783413" fill="white">
            <use xlink:href="#path-27"></use>
        </mask>
        <rect id="path-29" x="8.99055873" y="8.17124146e-14" width="2.07474432" height="19.5783413" rx="1.03737216"></rect>
        <mask id="mask-30" maskContentUnits="userSpaceOnUse" maskUnits="objectBoundingBox" x="0" y="0" width="2.07474432" height="19.5783413" fill="white">
            <use xlink:href="#path-29"></use>
        </mask>
        <rect id="path-31" x="8.99055873" y="1.49213975e-13" width="2.07474432" height="19.5783413" rx="1.03737216"></rect>
        <mask id="mask-32" maskContentUnits="userSpaceOnUse" maskUnits="objectBoundingBox" x="0" y="0" width="2.07474432" height="19.5783413" fill="white">
            <use xlink:href="#path-31"></use>
        </mask>
        <rect id="path-33" x="8.99055873" y="1.10134124e-13" width="2.07474432" height="19.5783413" rx="1.03737216"></rect>
        <mask id="mask-34" maskContentUnits="userSpaceOnUse" maskUnits="objectBoundingBox" x="0" y="0" width="2.07474432" height="19.5783413" fill="white">
            <use xlink:href="#path-33"></use>
        </mask>
        <rect id="path-35" x="3.14669556" y="7.46069873e-14" width="0.726160513" height="9.78917063" rx="0.363080256"></rect>
        <mask id="mask-36" maskContentUnits="userSpaceOnUse" maskUnits="objectBoundingBox" x="0" y="0" width="0.726160513" height="9.78917063" fill="white">
            <use xlink:href="#path-35"></use>
        </mask>
        <rect id="path-37" x="3.14669556" y="5.5067062e-14" width="0.726160513" height="9.78917063" rx="0.363080256"></rect>
        <mask id="mask-38" maskContentUnits="userSpaceOnUse" maskUnits="objectBoundingBox" x="0" y="0" width="0.726160513" height="9.78917063" fill="white">
            <use xlink:href="#path-37"></use>
        </mask>
        <rect id="path-39" x="4.9448073" y="1.17239551e-13" width="1.14110938" height="15.3829824" rx="0.570554689"></rect>
        <mask id="mask-40" maskContentUnits="userSpaceOnUse" maskUnits="objectBoundingBox" x="0" y="0" width="1.14110938" height="15.3829824" fill="white">
            <use xlink:href="#path-39"></use>
        </mask>
        <rect id="path-41" x="4.9448073" y="8.65339546e-14" width="1.14110938" height="15.3829824" rx="0.570554689"></rect>
        <mask id="mask-42" maskContentUnits="userSpaceOnUse" maskUnits="objectBoundingBox" x="0" y="0" width="1.14110938" height="15.3829824" fill="white">
            <use xlink:href="#path-41"></use>
        </mask>
        <rect id="path-43" x="5.22269571" y="4.50306459e-13" width="1.20523747" height="11.373233" rx="0.602618736"></rect>
        <mask id="mask-44" maskContentUnits="userSpaceOnUse" maskUnits="objectBoundingBox" x="0" y="0" width="1.20523747" height="11.373233" fill="white">
            <use xlink:href="#path-43"></use>
        </mask>
        <rect id="path-45" x="5.22269571" y="4.58300065e-13" width="1.20523747" height="11.373233" rx="0.602618736"></rect>
        <mask id="mask-46" maskContentUnits="userSpaceOnUse" maskUnits="objectBoundingBox" x="0" y="0" width="1.20523747" height="11.373233" fill="white">
            <use xlink:href="#path-45"></use>
        </mask>
        <rect id="path-47" x="8.94872229" y="5.75539616e-13" width="2.06508976" height="19.4872359" rx="1.03254488"></rect>
        <mask id="mask-48" maskContentUnits="userSpaceOnUse" maskUnits="objectBoundingBox" x="0" y="0" width="2.06508976" height="19.4872359" fill="white">
            <use xlink:href="#path-47"></use>
        </mask>
        <rect id="path-49" x="8.94872229" y="5.5067062e-13" width="2.06508976" height="19.4872359" rx="1.03254488"></rect>
        <mask id="mask-50" maskContentUnits="userSpaceOnUse" maskUnits="objectBoundingBox" x="0" y="0" width="2.06508976" height="19.4872359" fill="white">
            <use xlink:href="#path-49"></use>
        </mask>
        <rect id="path-51" x="21.0578817" y="1.06226139e-12" width="4.85951117" height="45.8568157" rx="2.42975559"></rect>
        <mask id="mask-52" maskContentUnits="userSpaceOnUse" maskUnits="objectBoundingBox" x="0" y="0" width="4.85951117" height="45.8568157" fill="white">
            <use xlink:href="#path-51"></use>
        </mask>
        <rect id="path-53" x="21.0578817" y="1.03739239e-12" width="4.85951117" height="45.8568157" rx="2.42975559"></rect>
        <mask id="mask-54" maskContentUnits="userSpaceOnUse" maskUnits="objectBoundingBox" x="0" y="0" width="4.85951117" height="45.8568157" fill="white">
            <use xlink:href="#path-53"></use>
        </mask>
        <rect id="path-55" x="30.5254972" y="-2.06057393e-13" width="7.0443455" height="66.4740223" rx="3.52217275"></rect>
        <mask id="mask-56" maskContentUnits="userSpaceOnUse" maskUnits="objectBoundingBox" x="0" y="0" width="7.0443455" height="66.4740223" fill="white">
            <use xlink:href="#path-55"></use>
        </mask>
        <rect id="path-57" x="30.5254972" y="-1.56319402e-13" width="7.0443455" height="66.4740223" rx="3.52217275"></rect>
        <mask id="mask-58" maskContentUnits="userSpaceOnUse" maskUnits="objectBoundingBox" x="-4" y="-4" width="15.0443455" height="74.4740223">
            <rect x="26.5254972" y="-4" width="15.0443455" height="74.4740223" fill="white"></rect>
            <use xlink:href="#path-57" fill="black"></use>
        </mask>
        <rect id="path-59" x="3.14669556" y="7.46069873e-14" width="0.726160513" height="9.78917063" rx="0.363080256"></rect>
        <mask id="mask-60" maskContentUnits="userSpaceOnUse" maskUnits="objectBoundingBox" x="0" y="0" width="0.726160513" height="9.78917063" fill="white">
            <use xlink:href="#path-59"></use>
        </mask>
        <rect id="path-61" x="3.14669556" y="5.5067062e-14" width="0.726160513" height="9.78917063" rx="0.363080256"></rect>
        <mask id="mask-62" maskContentUnits="userSpaceOnUse" maskUnits="objectBoundingBox" x="0" y="0" width="0.726160513" height="9.78917063" fill="white">
            <use xlink:href="#path-61"></use>
        </mask>
        <rect id="path-63" x="4.9448073" y="1.17239551e-13" width="1.14110938" height="15.3829824" rx="0.570554689"></rect>
        <mask id="mask-64" maskContentUnits="userSpaceOnUse" maskUnits="objectBoundingBox" x="0" y="0" width="1.14110938" height="15.3829824" fill="white">
            <use xlink:href="#path-63"></use>
        </mask>
        <rect id="path-65" x="4.9448073" y="8.65339546e-14" width="1.14110938" height="15.3829824" rx="0.570554689"></rect>
        <mask id="mask-66" maskContentUnits="userSpaceOnUse" maskUnits="objectBoundingBox" x="0" y="0" width="1.14110938" height="15.3829824" fill="white">
            <use xlink:href="#path-65"></use>
        </mask>
        <rect id="path-67" x="21.0578817" y="1.06226139e-12" width="4.85951117" height="45.8568157" rx="2.42975559"></rect>
        <mask id="mask-68" maskContentUnits="userSpaceOnUse" maskUnits="objectBoundingBox" x="0" y="0" width="4.85951117" height="45.8568157" fill="white">
            <use xlink:href="#path-67"></use>
        </mask>
        <rect id="path-69" x="21.0578817" y="1.03739239e-12" width="4.85951117" height="45.8568157" rx="2.42975559"></rect>
        <mask id="mask-70" maskContentUnits="userSpaceOnUse" maskUnits="objectBoundingBox" x="0" y="0" width="4.85951117" height="45.8568157" fill="white">
            <use xlink:href="#path-69"></use>
        </mask>
        <rect id="path-71" x="30.5254972" y="-2.06057393e-13" width="7.0443455" height="66.4740223" rx="3.52217275"></rect>
        <mask id="mask-72" maskContentUnits="userSpaceOnUse" maskUnits="objectBoundingBox" x="0" y="0" width="7.0443455" height="66.4740223" fill="white">
            <use xlink:href="#path-71"></use>
        </mask>
        <rect id="path-73" x="30.5254972" y="-1.56319402e-13" width="7.0443455" height="66.4740223" rx="3.52217275"></rect>
        <mask id="mask-74" maskContentUnits="userSpaceOnUse" maskUnits="objectBoundingBox" x="-4" y="-4" width="15.0443455" height="74.4740223">
            <rect x="26.5254972" y="-4" width="15.0443455" height="74.4740223" fill="white"></rect>
            <use xlink:href="#path-73" fill="black"></use>
        </mask>
        <rect id="path-75" x="3.14669556" y="7.46069873e-14" width="0.726160513" height="9.78917063" rx="0.363080256"></rect>
        <mask id="mask-76" maskContentUnits="userSpaceOnUse" maskUnits="objectBoundingBox" x="0" y="0" width="0.726160513" height="9.78917063" fill="white">
            <use xlink:href="#path-75"></use>
        </mask>
        <rect id="path-77" x="3.14669556" y="5.5067062e-14" width="0.726160513" height="9.78917063" rx="0.363080256"></rect>
        <mask id="mask-78" maskContentUnits="userSpaceOnUse" maskUnits="objectBoundingBox" x="0" y="0" width="0.726160513" height="9.78917063" fill="white">
            <use xlink:href="#path-77"></use>
        </mask>
        <rect id="path-79" x="4.9448073" y="1.17239551e-13" width="1.14110938" height="15.3829824" rx="0.570554689"></rect>
        <mask id="mask-80" maskContentUnits="userSpaceOnUse" maskUnits="objectBoundingBox" x="0" y="0" width="1.14110938" height="15.3829824" fill="white">
            <use xlink:href="#path-79"></use>
        </mask>
        <rect id="path-81" x="4.9448073" y="8.65339546e-14" width="1.14110938" height="15.3829824" rx="0.570554689"></rect>
        <mask id="mask-82" maskContentUnits="userSpaceOnUse" maskUnits="objectBoundingBox" x="0" y="0" width="1.14110938" height="15.3829824" fill="white">
            <use xlink:href="#path-81"></use>
        </mask>
        <rect id="path-83" x="21.0578817" y="1.06226139e-12" width="4.85951117" height="45.8568157" rx="2.42975559"></rect>
        <mask id="mask-84" maskContentUnits="userSpaceOnUse" maskUnits="objectBoundingBox" x="0" y="0" width="4.85951117" height="45.8568157" fill="white">
            <use xlink:href="#path-83"></use>
        </mask>
        <rect id="path-85" x="21.0578817" y="1.03739239e-12" width="4.85951117" height="45.8568157" rx="2.42975559"></rect>
        <mask id="mask-86" maskContentUnits="userSpaceOnUse" maskUnits="objectBoundingBox" x="0" y="0" width="4.85951117" height="45.8568157" fill="white">
            <use xlink:href="#path-85"></use>
        </mask>
        <rect id="path-87" x="30.5254972" y="-2.06057393e-13" width="7.0443455" height="66.4740223" rx="3.52217275"></rect>
        <mask id="mask-88" maskContentUnits="userSpaceOnUse" maskUnits="objectBoundingBox" x="0" y="0" width="7.0443455" height="66.4740223" fill="white">
            <use xlink:href="#path-87"></use>
        </mask>
        <rect id="path-89" x="30.5254972" y="-1.56319402e-13" width="7.0443455" height="66.4740223" rx="3.52217275"></rect>
        <mask id="mask-90" maskContentUnits="userSpaceOnUse" maskUnits="objectBoundingBox" x="-4" y="-4" width="15.0443455" height="74.4740223">
            <rect x="26.5254972" y="-4" width="15.0443455" height="74.4740223" fill="white"></rect>
            <use xlink:href="#path-89" fill="black"></use>
        </mask>
        <rect id="path-91" x="3.14669556" y="7.46069873e-14" width="0.726160513" height="9.78917063" rx="0.363080256"></rect>
        <mask id="mask-92" maskContentUnits="userSpaceOnUse" maskUnits="objectBoundingBox" x="0" y="0" width="0.726160513" height="9.78917063" fill="white">
            <use xlink:href="#path-91"></use>
        </mask>
        <rect id="path-93" x="3.14669556" y="5.5067062e-14" width="0.726160513" height="9.78917063" rx="0.363080256"></rect>
        <mask id="mask-94" maskContentUnits="userSpaceOnUse" maskUnits="objectBoundingBox" x="0" y="0" width="0.726160513" height="9.78917063" fill="white">
            <use xlink:href="#path-93"></use>
        </mask>
        <rect id="path-95" x="4.9448073" y="1.17239551e-13" width="1.14110938" height="15.3829824" rx="0.570554689"></rect>
        <mask id="mask-96" maskContentUnits="userSpaceOnUse" maskUnits="objectBoundingBox" x="0" y="0" width="1.14110938" height="15.3829824" fill="white">
            <use xlink:href="#path-95"></use>
        </mask>
        <rect id="path-97" x="4.9448073" y="8.65339546e-14" width="1.14110938" height="15.3829824" rx="0.570554689"></rect>
        <mask id="mask-98" maskContentUnits="userSpaceOnUse" maskUnits="objectBoundingBox" x="0" y="0" width="1.14110938" height="15.3829824" fill="white">
            <use xlink:href="#path-97"></use>
        </mask>
        <rect id="path-99" x="21.0578817" y="1.06226139e-12" width="4.85951117" height="45.8568157" rx="2.42975559"></rect>
        <mask id="mask-100" maskContentUnits="userSpaceOnUse" maskUnits="objectBoundingBox" x="0" y="0" width="4.85951117" height="45.8568157" fill="white">
            <use xlink:href="#path-99"></use>
        </mask>
        <rect id="path-101" x="21.0578817" y="1.03739239e-12" width="4.85951117" height="45.8568157" rx="2.42975559"></rect>
        <mask id="mask-102" maskContentUnits="userSpaceOnUse" maskUnits="objectBoundingBox" x="0" y="0" width="4.85951117" height="45.8568157" fill="white">
            <use xlink:href="#path-101"></use>
        </mask>
    </defs>
    <g id="site" stroke="none" stroke-width="1" fill="none" fill-rule="evenodd">
        <g id="Artboard-3">
            <rect id="Rectangle" fill="#5952FF" x="0" y="-17" width="2000" height="817"></rect>
            <g id="Group-3" transform="translate(-25.000000, -17.000000)">
                <g id="Group-2" transform="translate(690.000000, 391.000000)">
                    <use id="Rectangle-5" stroke="#FFFFFF" mask="url(#mask-2)" stroke-width="10" xlink:href="#path-1"></use>
                    <use id="Rectangle-2" stroke="#FFEA78" mask="url(#mask-4)" stroke-width="54" xlink:href="#path-3"></use>
                </g>
                <circle id="Oval" stroke="#FF8C8C" stroke-width="3" cx="1230.5" cy="666.5" r="30.5"></circle>
                <circle id="Oval" stroke="#FFFFFF" stroke-width="3" opacity="0.102203825" cx="1243" cy="279" r="8"></circle>
                <circle id="Oval" stroke="#FFFFFF" stroke-width="3" opacity="0.102203825" cx="1630" cy="295" r="8"></circle>
                <path d="M1204,186 C1205.65685,186 1207,184.656854 1207,183 C1207,181.343146 1205.65685,180 1204,180 C1202.34315,180 1201,181.343146 1201,183 C1201,184.656854 1202.34315,186 1204,186 Z" id="Oval" stroke="#FFFFFF" stroke-width="3" fill="#FFFFFF"></path>
                <path d="M1036,259 C1037.65685,259 1039,257.656854 1039,256 C1039,254.343146 1037.65685,253 1036,253 C1034.34315,253 1033,254.343146 1033,256 C1033,257.656854 1034.34315,259 1036,259 Z" id="Oval" stroke="#FFFFFF" stroke-width="3" fill="#FFFFFF" opacity="0.22318097"></path>
                <circle id="Oval" stroke="#FFFFFF" stroke-width="3" cx="862.5" cy="264.5" r="5.5"></circle>
                <circle id="Oval" stroke="#FFFFFF" stroke-width="3" cx="82.5" cy="114.5" r="5.5"></circle>
                <path d="M861,194 C864.865993,194 868,190.865993 868,187 C868,183.134007 864.865993,180 861,180 C857.134007,180 854,183.134007 854,187 C854,190.865993 857.134007,194 861,194 Z" id="Oval" stroke="#FFFFFF" stroke-width="3" fill="#FFFFFF"></path>
                <path d="M321,294 C324.865993,294 328,290.865993 328,287 C328,283.134007 324.865993,280 321,280 C317.134007,280 314,283.134007 314,287 C314,290.865993 317.134007,294 321,294 Z" id="Oval" stroke="#FFFFFF" stroke-width="3" fill="#FFFFFF"></path>
                <circle id="Oval" stroke="#FFFFFF" stroke-width="3" cx="1307.5" cy="607.5" r="5.5"></circle>
                <circle id="Oval" stroke="#FFFFFF" stroke-width="3" cx="1150.5" cy="754.5" r="5.5"></circle>
                <circle id="Oval" stroke="#FFFFFF" stroke-width="3" opacity="0.583838619" cx="862.5" cy="500.5" r="5.5"></circle>
                <circle id="Oval" stroke="#FFFFFF" stroke-width="3" opacity="0.177122201" cx="1233.5" cy="553.5" r="1.5"></circle>
                <circle id="Oval" stroke="#FFFFFF" stroke-width="3" opacity="0.177122201" cx="1413.5" cy="423.5" r="1.5"></circle>
                <use id="Oval" stroke="#FFFFFF" mask="url(#mask-6)" stroke-width="10" xlink:href="#path-5"></use>
                <use id="Triangle" stroke="#FFFFFF" mask="url(#mask-8)" stroke-width="48" xlink:href="#path-7"></use>
                <use id="Triangle" stroke="#77FFCD" mask="url(#mask-10)" stroke-width="18" xlink:href="#path-9"></use>
                <g id="Group" opacity="0.917269123" transform="translate(654.236679, 61.590233) rotate(-285.000000) translate(-654.236679, -61.590233) translate(633.236679, 41.090233)" stroke="#FFFFFF" stroke-width="2">
                    <use id="Rectangle-6" mask="url(#mask-12)" fill="#FFFFFF" xlink:href="#path-11"></use>
                    <use id="Rectangle-6" mask="url(#mask-14)" transform="translate(21.000000, 20.500000) rotate(-270.000000) translate(-21.000000, -20.500000) " xlink:href="#path-13"></use>
                </g>
                <g id="Group" transform="translate(1008.534056, 73.534056) rotate(-285.000000) translate(-1008.534056, -73.534056) translate(995.034056, 60.034056)" stroke="#FFFFFF" stroke-width="2">
                    <use id="Rectangle-6" mask="url(#mask-16)" fill="#FFFFFF" xlink:href="#path-15"></use>
                    <use id="Rectangle-6" mask="url(#mask-18)" transform="translate(13.574342, 13.251144) rotate(-270.000000) translate(-13.574342, -13.251144) " xlink:href="#path-17"></use>
                </g>
                <g id="Group" transform="translate(773.158363, 707.511916) rotate(-285.000000) translate(-773.158363, -707.511916) translate(739.158363, 674.011916)">
                    <use id="Rectangle-6" stroke="#FFFFFF" mask="url(#mask-20)" stroke-width="2" fill="#FFFFFF" xlink:href="#path-19"></use>
                    <g id="Rectangle-6" transform="translate(34.047670, 33.237011) rotate(-270.000000) translate(-34.047670, -33.237011) ">
                        <use fill="#FFFDFD" fill-rule="evenodd" xlink:href="#path-21"></use>
                        <use stroke="#5953FF" mask="url(#mask-22)" stroke-width="8" xlink:href="#path-21"></use>
                    </g>
                </g>
                <g id="Group" transform="translate(1138.247449, 542.247449) rotate(-285.000000) translate(-1138.247449, -542.247449) translate(1128.247449, 532.247449)" stroke="#FFFFFF" stroke-width="2">
                    <use id="Rectangle-6" mask="url(#mask-24)" fill="#FFFFFF" xlink:href="#path-23"></use>
                    <use id="Rectangle-6" mask="url(#mask-26)" transform="translate(10.027931, 9.789171) rotate(-270.000000) translate(-10.027931, -9.789171) " xlink:href="#path-25"></use>
                </g>
                <g id="Group" transform="translate(814.247449, 590.247449) rotate(-285.000000) translate(-814.247449, -590.247449) translate(804.247449, 580.247449)" stroke="#FFFFFF" stroke-width="2">
                    <use id="Rectangle-6" mask="url(#mask-28)" fill="#FFFFFF" xlink:href="#path-27"></use>
                    <use id="Rectangle-6" mask="url(#mask-30)" transform="translate(10.027931, 9.789171) rotate(-270.000000) translate(-10.027931, -9.789171) " xlink:href="#path-29"></use>
                </g>
                <g id="Group" transform="translate(1330.247449, 685.247449) rotate(-285.000000) translate(-1330.247449, -685.247449) translate(1320.247449, 675.247449)" stroke="#FFFFFF" stroke-width="2">
                    <use id="Rectangle-6" mask="url(#mask-32)" fill="#FFFFFF" xlink:href="#path-31"></use>
                    <use id="Rectangle-6" mask="url(#mask-34)" transform="translate(10.027931, 9.789171) rotate(-270.000000) translate(-10.027931, -9.789171) " xlink:href="#path-33"></use>
                </g>
                <g id="Group" opacity="0.639225746" transform="translate(1191.747449, 617.247449) rotate(-285.000000) translate(-1191.747449, -617.247449) translate(1188.247449, 612.247449)" stroke="#FFFFFF" stroke-width="2">
                    <use id="Rectangle-6" mask="url(#mask-36)" fill="#FFFFFF" xlink:href="#path-35"></use>
                    <use id="Rectangle-6" mask="url(#mask-38)" transform="translate(3.509776, 4.894585) rotate(-270.000000) translate(-3.509776, -4.894585) " xlink:href="#path-37"></use>
                </g>
                <g id="Group" opacity="0.252506996" transform="translate(697.735496, 585.531978) rotate(-285.000000) translate(-697.735496, -585.531978) translate(692.235496, 577.674836)" stroke="#FFFFFF" stroke-width="2">
                    <use id="Rectangle-6" mask="url(#mask-40)" fill="#FFFFFF" xlink:href="#path-39"></use>
                    <use id="Rectangle-6" mask="url(#mask-42)" transform="translate(5.515362, 7.691491) rotate(-270.000000) translate(-5.515362, -7.691491) " xlink:href="#path-41"></use>
                </g>
                <g id="Group" opacity="0.517432369" transform="translate(1294.979658, 236.517844) rotate(-285.000000) translate(-1294.979658, -236.517844) translate(1288.979658, 230.517844)" stroke="#FFFFFF" stroke-width="2">
                    <use id="Rectangle-6" mask="url(#mask-44)" fill="#FFFFFF" xlink:href="#path-43"></use>
                    <use id="Rectangle-6" mask="url(#mask-46)" transform="translate(5.825314, 5.686616) rotate(-270.000000) translate(-5.825314, -5.686616) " xlink:href="#path-45"></use>
                </g>
                <g id="Group" transform="translate(1151.247449, 254.247449) rotate(-285.000000) translate(-1151.247449, -254.247449) translate(1141.247449, 244.247449)" stroke="#FFFFFF" stroke-width="2">
                    <use id="Rectangle-6" mask="url(#mask-48)" fill="#FFFFFF" xlink:href="#path-47"></use>
                    <use id="Rectangle-6" mask="url(#mask-50)" transform="translate(9.981267, 9.743618) rotate(-270.000000) translate(-9.981267, -9.743618) " xlink:href="#path-49"></use>
                </g>
                <g id="Group" opacity="0.102495336" transform="translate(1067.325744, 388.647562) rotate(-285.000000) translate(-1067.325744, -388.647562) translate(1043.825744, 365.647562)" stroke="#FFFFFF" stroke-width="2" fill="#FFFFFF">
                    <use id="Rectangle-6" mask="url(#mask-52)" opacity="0.665403451" xlink:href="#path-51"></use>
                    <use id="Rectangle-6" mask="url(#mask-54)" transform="translate(23.487637, 22.928408) rotate(-270.000000) translate(-23.487637, -22.928408) " xlink:href="#path-53"></use>
                </g>
                <g id="Group-4" transform="translate(1790.402633, 380.402633) rotate(-225.000000) translate(-1790.402633, -380.402633) translate(1508.902633, 140.902633)">
                    <circle id="Oval" stroke="#FFFFFF" stroke-width="3" opacity="0.102203825" cx="555" cy="8" r="8"></circle>
                    <g id="Group" transform="translate(85.158363, 436.511916) rotate(-285.000000) translate(-85.158363, -436.511916) translate(51.158363, 403.011916)">
                        <use id="Rectangle-6" stroke="#FFFFFF" mask="url(#mask-56)" stroke-width="2" fill="#FFFFFF" xlink:href="#path-55"></use>
                        <g id="Rectangle-6" transform="translate(34.047670, 33.237011) rotate(-270.000000) translate(-34.047670, -33.237011) ">
                            <use fill="#FFFDFD" fill-rule="evenodd" xlink:href="#path-57"></use>
                            <use stroke="#5953FF" mask="url(#mask-58)" stroke-width="8" xlink:href="#path-57"></use>
                        </g>
                    </g>
                    <g id="Group" opacity="0.639225746" transform="translate(503.747449, 346.247449) rotate(-285.000000) translate(-503.747449, -346.247449) translate(500.247449, 341.247449)" stroke="#FFFFFF" stroke-width="2">
                        <use id="Rectangle-6" mask="url(#mask-60)" fill="#FFFFFF" xlink:href="#path-59"></use>
                        <use id="Rectangle-6" mask="url(#mask-62)" transform="translate(3.509776, 4.894585) rotate(-270.000000) translate(-3.509776, -4.894585) " xlink:href="#path-61"></use>
                    </g>
                    <g id="Group" opacity="0.252506996" transform="translate(9.735496, 314.531978) rotate(-285.000000) translate(-9.735496, -314.531978) translate(4.235496, 306.674836)" stroke="#FFFFFF" stroke-width="2">
                        <use id="Rectangle-6" mask="url(#mask-64)" fill="#FFFFFF" xlink:href="#path-63"></use>
                        <use id="Rectangle-6" mask="url(#mask-66)" transform="translate(5.515362, 7.691491) rotate(-270.000000) translate(-5.515362, -7.691491) " xlink:href="#path-65"></use>
                    </g>
                    <g id="Group" opacity="0.102495336" transform="translate(379.325744, 117.647562) rotate(-285.000000) translate(-379.325744, -117.647562) translate(355.825744, 94.647562)" stroke="#FFFFFF" stroke-width="2" fill="#FFFFFF">
                        <use id="Rectangle-6" mask="url(#mask-68)" opacity="0.665403451" xlink:href="#path-67"></use>
                        <use id="Rectangle-6" mask="url(#mask-70)" transform="translate(23.487637, 22.928408) rotate(-270.000000) translate(-23.487637, -22.928408) " xlink:href="#path-69"></use>
                    </g>
                </g>
                <g id="Group-4" transform="translate(363.597367, 417.402633) rotate(-330.000000) translate(-363.597367, -417.402633) translate(82.097367, 177.902633)">
                    <circle id="Oval" stroke="#FFFFFF" stroke-width="3" opacity="0.102203825" cx="555" cy="8" r="8"></circle>
                    <g id="Group" transform="translate(85.158363, 436.511916) rotate(-285.000000) translate(-85.158363, -436.511916) translate(51.158363, 403.011916)">
                        <use id="Rectangle-6" stroke="#FFFFFF" mask="url(#mask-72)" stroke-width="2" fill="#FFFFFF" xlink:href="#path-71"></use>
                        <g id="Rectangle-6" transform="translate(34.047670, 33.237011) rotate(-270.000000) translate(-34.047670, -33.237011) ">
                            <use fill="#FFFDFD" fill-rule="evenodd" xlink:href="#path-73"></use>
                            <use stroke="#5953FF" mask="url(#mask-74)" stroke-width="8" xlink:href="#path-73"></use>
                        </g>
                    </g>
                    <g id="Group" opacity="0.639225746" transform="translate(503.747449, 346.247449) rotate(-285.000000) translate(-503.747449, -346.247449) translate(500.247449, 341.247449)" stroke="#FFFFFF" stroke-width="2">
                        <use id="Rectangle-6" mask="url(#mask-76)" fill="#FFFFFF" xlink:href="#path-75"></use>
                        <use id="Rectangle-6" mask="url(#mask-78)" transform="translate(3.509776, 4.894585) rotate(-270.000000) translate(-3.509776, -4.894585) " xlink:href="#path-77"></use>
                    </g>
                    <g id="Group" opacity="0.252506996" transform="translate(9.735496, 314.531978) rotate(-285.000000) translate(-9.735496, -314.531978) translate(4.235496, 306.674836)" stroke="#FFFFFF" stroke-width="2">
                        <use id="Rectangle-6" mask="url(#mask-80)" fill="#FFFFFF" xlink:href="#path-79"></use>
                        <use id="Rectangle-6" mask="url(#mask-82)" transform="translate(5.515362, 7.691491) rotate(-270.000000) translate(-5.515362, -7.691491) " xlink:href="#path-81"></use>
                    </g>
                    <g id="Group" opacity="0.102495336" transform="translate(379.325744, 117.647562) rotate(-285.000000) translate(-379.325744, -117.647562) translate(355.825744, 94.647562)" stroke="#FFFFFF" stroke-width="2" fill="#FFFFFF">
                        <use id="Rectangle-6" mask="url(#mask-84)" opacity="0.665403451" xlink:href="#path-83"></use>
                        <use id="Rectangle-6" mask="url(#mask-86)" transform="translate(23.487637, 22.928408) rotate(-270.000000) translate(-23.487637, -22.928408) " xlink:href="#path-85"></use>
                    </g>
                </g>
                <g id="Group-4" transform="translate(1790.402633, 380.402633) rotate(-225.000000) translate(-1790.402633, -380.402633) translate(1508.902633, 140.902633)">
                    <circle id="Oval" stroke="#FFFFFF" stroke-width="3" opacity="0.102203825" cx="555" cy="8" r="8"></circle>
                    <g id="Group" transform="translate(85.158363, 436.511916) rotate(-285.000000) translate(-85.158363, -436.511916) translate(51.158363, 403.011916)">
                        <use id="Rectangle-6" stroke="#FFFFFF" mask="url(#mask-88)" stroke-width="2" fill="#FFFFFF" xlink:href="#path-87"></use>
                        <g id="Rectangle-6" transform="translate(34.047670, 33.237011) rotate(-270.000000) translate(-34.047670, -33.237011) ">
                            <use fill="#FFFDFD" fill-rule="evenodd" xlink:href="#path-89"></use>
                            <use stroke="#5953FF" mask="url(#mask-90)" stroke-width="8" xlink:href="#path-89"></use>
                        </g>
                    </g>
                    <g id="Group" opacity="0.639225746" transform="translate(503.747449, 346.247449) rotate(-285.000000) translate(-503.747449, -346.247449) translate(500.247449, 341.247449)" stroke="#FFFFFF" stroke-width="2">
                        <use id="Rectangle-6" mask="url(#mask-92)" fill="#FFFFFF" xlink:href="#path-91"></use>
                        <use id="Rectangle-6" mask="url(#mask-94)" transform="translate(3.509776, 4.894585) rotate(-270.000000) translate(-3.509776, -4.894585) " xlink:href="#path-93"></use>
                    </g>
                    <g id="Group" opacity="0.252506996" transform="translate(9.735496, 314.531978) rotate(-285.000000) translate(-9.735496, -314.531978) translate(4.235496, 306.674836)" stroke="#FFFFFF" stroke-width="2">
                        <use id="Rectangle-6" mask="url(#mask-96)" fill="#FFFFFF" xlink:href="#path-95"></use>
                        <use id="Rectangle-6" mask="url(#mask-98)" transform="translate(5.515362, 7.691491) rotate(-270.000000) translate(-5.515362, -7.691491) " xlink:href="#path-97"></use>
                    </g>
                    <g id="Group" opacity="0.102495336" transform="translate(379.325744, 117.647562) rotate(-285.000000) translate(-379.325744, -117.647562) translate(355.825744, 94.647562)" stroke="#FFFFFF" stroke-width="2" fill="#FFFFFF">
                        <use id="Rectangle-6" mask="url(#mask-100)" opacity="0.665403451" xlink:href="#path-99"></use>
                        <use id="Rectangle-6" mask="url(#mask-102)" transform="translate(23.487637, 22.928408) rotate(-270.000000) translate(-23.487637, -22.928408) " xlink:href="#path-101"></use>
                    </g>
                </g>
            </g>
        </g>
    </g>
</svg>