<?xml version="1.0" encoding="UTF-8" standalone="no"?>
<svg width="16px" height="16px" viewBox="0 0 16 16" version="1.1" xmlns="http://www.w3.org/2000/svg" xmlns:xlink="http://www.w3.org/1999/xlink">
    <!-- Generator: Sketch 39.1 (31720) - http://www.bohemiancoding.com/sketch -->
    <title>Fill 3</title>
    <desc>Created with Sketch.</desc>
    <defs></defs>
    <g id="Symbols" stroke="none" stroke-width="1" fill="none" fill-rule="evenodd">
        <g id="projects/icons" transform="translate(-8.000000, -8.000000)" fill="#0073FF">
            <g id="btn-group">
                <g id="github">
                    <path d="M8,16.0002456 C8,19.5347924 10.2920286,22.5330428 13.4710089,23.5909021 C13.8712668,23.6645692 14.0171276,23.4175389 14.0171276,23.2053777 C14.0171276,23.0158077 14.010252,22.512416 14.0063231,21.8449922 C11.781086,22.3282483 11.3115811,20.7723994 11.3115811,20.7723994 C10.9476657,19.848123 10.423156,19.602075 10.423156,19.602075 C9.69679855,19.1060499 10.4781608,19.1158722 10.4781608,19.1158722 C11.281132,19.1723503 11.70349,19.9404524 11.70349,19.9404524 C12.4170785,21.162835 13.5761073,20.8097241 14.031861,20.6049296 C14.1045459,20.0882777 14.3113048,19.7356579 14.5396728,19.5357746 C12.7633138,19.3339268 10.8956076,18.6473495 10.8956076,15.5818165 C10.8956076,14.708616 11.2074649,13.9940452 11.7192056,13.4351576 C11.6366985,13.2328187 11.3621658,12.4190429 11.7977838,11.3179656 C11.7977838,11.3179656 12.4691366,11.1028577 13.997483,12.1381258 C14.63544,11.9603426 15.3200528,11.871942 16.0002456,11.8685043 C16.6799472,11.871942 17.3640689,11.9603426 18.0030081,12.1381258 C19.5303723,11.1028577 20.2007428,11.3179656 20.2007428,11.3179656 C20.6373431,12.4190429 20.3628104,13.2328187 20.2807944,13.4351576 C20.7935173,13.9940452 21.1029191,14.708616 21.1029191,15.5818165 C21.1029191,18.6552073 19.2322662,19.3314712 17.4505049,19.5293901 C17.7373154,19.7764204 17.9931858,20.2645876 17.9931858,21.0110808 C17.9931858,22.0802357 17.9833635,22.9431229 17.9833635,23.2053777 C17.9833635,23.4195034 18.127751,23.6684981 18.5334111,23.590411 C21.7099358,22.5300961 24,19.5338101 24,16.0002456 C24,11.5816937 20.4178152,8 15.9992633,8 C11.5821848,8 8,11.5816937 8,16.0002456 Z" id="Fill-3"></path>
                </g>
            </g>
        </g>
    </g>
</svg>