<?xml version="1.0" encoding="UTF-8" standalone="no"?>
<svg width="20px" height="23px" viewBox="0 0 20 23" version="1.1" xmlns="http://www.w3.org/2000/svg" xmlns:xlink="http://www.w3.org/1999/xlink" xmlns:sketch="http://www.bohemiancoding.com/sketch/ns">
    <!-- Generator: Sketch 3.3.3 (12081) - http://www.bohemiancoding.com/sketch -->
    <title>Shape</title>
    <desc>Created with Sketch.</desc>
    <defs></defs>
    <g id="Page-1" stroke="none" stroke-width="1" fill="none" fill-rule="evenodd" sketch:type="MSPage">
        <g id="card" sketch:type="MSArtboardGroup" transform="translate(-148.000000, -545.000000)" fill="#000000">
            <g id="card-back" sketch:type="MSLayerGroup" transform="translate(18.000000, 71.000000)">
                <g id="nightowl" sketch:type="MSShapeGroup">
                    <g id="social" transform="translate(80.000000, 472.000000)">
                        <path d="M66.4285714,2 L53.5714286,2 C51.5985714,2 50,3.6 50,5.57142857 L50,21.2857143 C50,23.2585714 51.5985714,24.8571429 53.5714286,24.8571429 L66.4285714,24.8571429 C68.4014286,24.8571429 70,23.2585714 70,21.2857143 L70,5.57142857 C70,3.6 68.4014286,2 66.4285714,2 L66.4285714,2 Z M64.2857143,4.85714286 L67.1428571,4.85714286 L67.1428571,7.71428571 L64.2857143,7.71428571 L64.2857143,4.85714286 L64.2857143,4.85714286 Z M60,7.71 C63.15,7.71 65.7057143,10.27 65.7057143,13.4242857 C65.7057143,16.5814286 63.15,19.14 60,19.14 C56.8471429,19.14 54.2914286,16.5814286 54.2914286,13.4242857 C54.2914286,10.27 56.8471429,7.71 60,7.71 L60,7.71 Z M68.5714286,20.5714286 C68.5714286,22.1485714 67.2914286,23.4285714 65.7142857,23.4285714 L54.2857143,23.4285714 C52.7085714,23.4285714 51.4285714,22.1485714 51.4285714,20.5714286 L51.4285714,14.8571429 L51.4271429,14.8571429 L51.4271429,12 L52.9642857,12 C52.9142857,12.3528571 52.86,12.7057143 52.86,13.0728571 C52.86,17.2114286 56.0571429,20.5685714 60,20.5685714 C63.9428571,20.5685714 67.14,17.2114286 67.14,13.0728571 C67.14,12.7057143 67.0871429,12.3528571 67.0371429,12 L68.5685714,12 L68.5685714,14.8285714 C68.5685714,14.8385714 68.5714286,14.8471429 68.5714286,14.8571429 L68.5714286,20.5714286 L68.5714286,20.5714286 Z" id="Shape"></path>
                    </g>
                </g>
            </g>
        </g>
    </g>
</svg>