<?xml version="1.0" encoding="UTF-8" standalone="no"?>
<svg width="25px" height="20px" viewBox="0 0 25 20" version="1.1" xmlns="http://www.w3.org/2000/svg" xmlns:xlink="http://www.w3.org/1999/xlink">
    <!-- Generator: Sketch 39.1 (31720) - http://www.bohemiancoding.com/sketch -->
    <title>Fill 39</title>
    <desc>Created with Sketch.</desc>
    <defs></defs>
    <g id="site" stroke="none" stroke-width="1" fill="none" fill-rule="evenodd">
        <g id="Cover" transform="translate(-398.000000, -954.000000)" fill="#FFFFFF">
            <g id="greeting">
                <g id="social" transform="translate(298.000000, 954.000000)">
                    <path d="M122.65625,3.07034766 L124.21875,0 L121.875,1.53517383 L121.41875,1.75777403 C120.4875,0.690828222 119.121875,0 117.578125,0 C114.773438,0 112.5,1.84988446 112.5,4.60552148 C112.5,4.98163907 112.549219,5.72619838 112.628906,6.07161249 L112.5,6.14069531 C112.5,6.14069531 102.34375,4.60552148 101.5625,0.767586914 C101.5625,0.767586914 99.21875,4.60552148 103.125,7.67586914 C103.125,7.67586914 101.5625,8.44345605 100.78125,7.67586914 C100.78125,7.67586914 100.78125,9.97862988 104.6875,12.2813906 C104.6875,12.2813906 103.125,13.0489775 102.34375,12.2813906 C102.34375,12.2813906 105.46875,15.3517383 107.03125,15.3517383 C107.03125,15.3517383 107.03125,17.654499 100,17.654499 C100,17.654499 108.889844,23.4114009 117.1875,16.8869121 C121.405469,13.5709366 122.432812,9.37223622 122.4875,6.20210226 C122.5875,5.81063294 122.65625,5.41072016 122.65625,4.98931494 L122.65625,4.60552148 L125,2.30276074 L122.65625,3.07034766" id="Fill-39"></path>
                </g>
            </g>
        </g>
    </g>
</svg>