<?xml version="1.0" encoding="UTF-8"?>
<svg width="71px" height="39px" viewBox="0 0 71 39" version="1.1" xmlns="http://www.w3.org/2000/svg" xmlns:xlink="http://www.w3.org/1999/xlink">
    <!-- Generator: Sketch 50.2 (55047) - http://www.bohemiancoding.com/sketch -->
    <title>cloudy</title>
    <desc>Created with Sketch.</desc>
    <defs></defs>
    <g id="thalida.com---Home" stroke="none" stroke-width="1" fill="none" fill-rule="evenodd">
        <g id="Home:-Version-6" transform="translate(-739.000000, -378.000000)" fill="#FFFFFF">
            <g id="window" transform="translate(528.000000, 248.000000)">
                <g id="outside">
                    <g transform="translate(75.000000, 12.000000)">
                        <path d="M196,157 L166,157 L150.5,157 C142.491871,157 136,150.508129 136,142.5 C136,134.491871 142.491871,128 150.5,128 L151,128 C153.299003,128 155.477206,128.517206 157.424601,129.44161 C159.022172,122.875008 164.941776,118 172,118 L176.5,118 C186.764845,118 195.177228,125.931328 195.943166,136 L196.5,136 C202.29899,136 207,140.70101 207,146.5 C207,152.29899 202.29899,157 196.5,157 L196,157 Z" id="cloudy"></path>
                    </g>
                </g>
            </g>
        </g>
    </g>
</svg>